<svg width="18" height="20" viewBox="0 0 18 20" fill="none" xmlns="http://www.w3.org/2000/svg">
<path d="M17.4998 8.19961C15.7801 8.20372 14.1025 7.6674 12.7041 6.66641V13.6477C12.7036 14.9407 12.3084 16.2027 11.5713 17.265C10.8342 18.3274 9.79037 19.1393 8.57933 19.5924C7.3683 20.0455 6.04782 20.118 4.79445 19.8003C3.54108 19.4826 2.41456 18.7899 1.56554 17.8147C0.716514 16.8395 0.185447 15.6283 0.0433485 14.3431C-0.0987496 13.058 0.154894 11.76 0.770364 10.6229C1.38583 9.48578 2.33379 8.56366 3.48749 7.97983C4.64118 7.39601 5.94562 7.17832 7.22637 7.35586V10.8672C6.6403 10.6828 6.01095 10.6884 5.42822 10.8831C4.84549 11.0777 4.33917 11.4515 3.98156 11.9511C3.62396 12.4507 3.43335 13.0505 3.43697 13.6649C3.44059 14.2793 3.63824 14.8768 4.00171 15.3721C4.36518 15.8675 4.87587 16.2353 5.46085 16.4231C6.04584 16.6109 6.6752 16.609 7.25907 16.4178C7.84293 16.2265 8.35144 15.8557 8.71197 15.3582C9.0725 14.8607 9.26662 14.262 9.26661 13.6477V0H12.7041C12.7017 0.290289 12.726 0.580182 12.7768 0.866016C12.8962 1.50409 13.1446 2.1111 13.5067 2.6499C13.8688 3.1887 14.337 3.64796 14.8826 3.99961C15.6589 4.51293 16.5691 4.78652 17.4998 4.78633V8.19961Z" fill="#CBCBE1"/>
</svg>
