<svg width="23" height="20" viewBox="0 0 23 20" fill="none" xmlns="http://www.w3.org/2000/svg">
<path d="M21.9706 4.84699C21.7252 3.92316 21.0023 3.19559 20.0845 2.94867C18.4208 2.5 11.7497 2.5 11.7497 2.5C11.7497 2.5 5.07859 2.5 3.41488 2.94867C2.49703 3.19563 1.77414 3.92316 1.52879 4.84699C1.08301 6.52148 1.08301 10.0152 1.08301 10.0152C1.08301 10.0152 1.08301 13.5088 1.52879 15.1833C1.77414 16.1071 2.49703 16.8044 3.41488 17.0513C5.07859 17.5 11.7497 17.5 11.7497 17.5C11.7497 17.5 18.4208 17.5 20.0845 17.0513C21.0023 16.8044 21.7252 16.1071 21.9706 15.1833C22.4164 13.5088 22.4164 10.0152 22.4164 10.0152C22.4164 10.0152 22.4164 6.52148 21.9706 4.84699ZM9.56785 13.1871V6.84316L15.1436 10.0152L9.56785 13.1871Z" fill="#CBCBE1"/>
</svg>
