<svg width="233" height="118" viewBox="0 0 233 118" fill="none" xmlns="http://www.w3.org/2000/svg">
<g filter="url(#filter0_d_560_24141)">
<mask id="mask0_560_24141" style="mask-type:alpha" maskUnits="userSpaceOnUse" x="4" y="-115" width="225" height="225">
<rect x="4" y="-115" width="224.872" height="224.872" fill="#EDECF4"/>
</mask>
<g mask="url(#mask0_560_24141)">
<path d="M-94.909 -58.7039L-97.4711 -49.0291L-90.6245 -42.0858L-83.8263 -35.1426L-86.2917 -25.9999L-88.7572 -16.8573L-81.9589 -9.81724L-75.1607 -2.7772L-77.6261 6.46218L-80.1157 15.7257L-73.2692 22.5723L-66.4468 29.3946L-68.9123 38.634L-71.4018 47.8976L-64.5795 54.8651L-57.7571 61.7842L-60.2467 71.0477L-62.7121 80.2871L-55.9139 87.2304L-49.0915 94.1979L-51.6053 103.486L-54.1191 112.773L-47.2967 119.741L-40.4743 126.708L-42.9639 135.972L-45.4293 145.211L-38.1715 152.469L-30.9137 159.727L-21.6501 157.237L-12.4107 154.772L-5.44325 161.594L1.52423 168.417L10.812 165.903L20.0997 163.389L27.0672 170.212L34.0105 177.01L43.2499 174.544L52.5134 172.055L59.4325 178.877L66.4 185.699L75.6394 183.234L84.903 180.744L91.7253 187.567L98.5719 194.413L107.835 191.924L117.075 189.458L124.115 196.257L131.155 203.055L140.298 200.589L149.44 198.124L156.383 204.922L163.327 211.769L172.929 209.182C178.202 207.78 182.652 206.524 182.87 206.403C183.063 206.306 184.344 202.025 185.674 196.97L188.163 187.755L197.354 185.289C202.385 183.936 206.618 182.751 206.739 182.63C206.86 182.509 208.044 178.277 209.398 173.246L211.863 164.055L221.054 161.589C226.085 160.236 230.318 159.051 230.439 158.931C230.559 158.81 231.744 154.577 233.097 149.546L235.563 140.355L244.754 137.89C249.785 136.536 254.017 135.352 254.138 135.231C254.259 135.11 255.444 130.877 256.797 125.846L259.263 116.655L268.454 114.19C273.485 112.836 277.717 111.652 277.838 111.531C277.959 111.41 279.143 107.177 280.497 102.147L282.962 92.9555L292.153 90.4901C297.184 89.1365 301.417 87.9521 301.538 87.8312C301.659 87.7103 302.843 83.4776 304.197 78.4468L306.662 69.2557L315.877 66.7661C320.932 65.4368 325.214 64.1556 325.31 63.9621C325.431 63.7445 326.688 59.2941 328.09 54.0214L330.676 44.4192L323.83 37.4759L317.031 30.5326L319.497 21.39L321.962 12.2473L315.164 5.20728L308.366 -1.83276L310.856 -11.0963L313.321 -20.3357L306.474 -27.1822L299.652 -34.0046L302.117 -43.244L304.607 -52.5076L297.785 -59.475L290.962 -66.3941L293.452 -75.6577L295.917 -84.8971L289.119 -91.8404L282.297 -98.8079L284.81 -108.096L287.324 -117.383L280.502 -124.351L273.68 -131.318L276.169 -140.582L278.635 -149.821L271.377 -157.079L264.119 -164.337L254.879 -161.871L245.616 -159.382L238.648 -166.204L231.681 -173.027L222.393 -170.513L213.105 -167.999L206.138 -174.821L199.195 -181.62L189.955 -179.154L180.692 -176.665L173.773 -183.487L166.805 -190.309L157.566 -187.844L148.302 -185.354L141.48 -192.177L134.633 -199.023L125.394 -196.558L116.13 -194.068L109.09 -200.867L102.05 -207.665L92.9077 -205.199L83.765 -202.734L76.8218 -209.532L69.8784 -216.379L60.2763 -213.792C55.0035 -212.39 50.5532 -211.134 50.3355 -211.013C50.142 -210.916 48.8608 -206.635 47.5315 -201.58L45.0419 -192.365L35.8509 -189.899C30.82 -188.546 26.5873 -187.361 26.4664 -187.24C26.3455 -187.119 25.1611 -182.887 23.8075 -177.856L21.3421 -168.665L12.1511 -166.199C7.12021 -164.846 2.88754 -163.661 2.76662 -163.541C2.6457 -163.42 1.46129 -159.187 0.107727 -154.156L-2.35769 -144.965L-11.5487 -142.5C-16.5796 -141.146 -20.8122 -139.962 -20.9332 -139.841C-21.0541 -139.72 -22.2385 -135.487 -23.5921 -130.456L-26.0575 -121.265L-35.2485 -118.8C-40.2793 -117.446 -44.512 -116.262 -44.6329 -116.141C-44.7539 -116.02 -45.9383 -111.787 -47.2918 -106.756L-49.7573 -97.5655L-58.9483 -95.1001C-63.9791 -93.7465 -68.2118 -92.5621 -68.3327 -92.4412C-68.4537 -92.3203 -69.6381 -88.0876 -70.9916 -83.0567L-73.457 -73.8657L-82.648 -71.4003C-87.6789 -70.0467 -91.96 -68.8139 -92.0809 -68.6446C-92.2502 -68.4754 -93.5071 -63.9766 -94.909 -58.7039ZM-81.6076 -69.5376L-73.0938 -71.8096L-66.6344 -65.3502L-60.1749 -58.8907L-62.4469 -50.3769C-63.7038 -45.6847 -64.8157 -41.7664 -64.9366 -41.6455C-65.0334 -41.5488 -68.9758 -40.4127 -73.6681 -39.1558L-82.1818 -36.8838L-88.6413 -43.3432L-95.0766 -49.7785L-92.8771 -58.2197C-91.6686 -62.8636 -90.5567 -66.7819 -90.3874 -66.9512C-90.2665 -67.1205 -86.2998 -68.2807 -81.6076 -69.5376ZM-57.9078 -93.2374L-49.394 -95.5094L-42.9346 -89.05L-36.4751 -82.5905L-38.7472 -74.0767C-40.004 -69.3845 -41.1159 -65.4662 -41.2368 -65.3453C-41.3336 -65.2486 -45.276 -64.1125 -49.9683 -62.8556L-58.4821 -60.5836L-64.9415 -67.043L-71.3768 -73.4783L-69.1773 -81.9195C-67.9688 -86.5634 -66.8569 -90.4817 -66.6876 -90.6509C-66.5667 -90.8202 -62.6001 -91.9805 -57.9078 -93.2374ZM-34.208 -116.937L-25.6701 -119.185L-19.2348 -112.75L-12.7753 -106.29L-15.0474 -97.7765C-16.3043 -93.0843 -17.4161 -89.166 -17.5371 -89.0451C-17.658 -88.9242 -21.5762 -87.8123 -26.2685 -86.5554L-34.7823 -84.2833L-41.2417 -90.7428L-47.677 -97.1781L-45.4775 -105.619C-44.269 -110.263 -43.1571 -114.181 -42.9878 -114.351C-42.8669 -114.52 -38.9003 -115.68 -34.208 -116.937ZM-10.5083 -140.637L-1.97028 -142.885L4.46497 -136.45L10.9244 -129.99L8.65241 -121.476C7.39553 -116.784 6.28364 -112.866 6.16272 -112.745C6.0418 -112.624 2.12354 -111.512 -2.56872 -110.255L-11.0825 -107.983L-17.542 -114.443L-23.9772 -120.878L-21.7777 -129.319C-20.5692 -133.963 -19.4573 -137.881 -19.288 -138.051C-19.1671 -138.22 -15.2005 -139.38 -10.5083 -140.637ZM13.1915 -164.337L21.7295 -166.585L28.1648 -160.149L34.6242 -153.69L32.3522 -145.176C31.0953 -140.484 29.9834 -136.566 29.8625 -136.445C29.7416 -136.324 25.8233 -135.212 21.1311 -133.955L12.6173 -131.683L6.15782 -138.142L-0.27744 -144.578L1.92205 -153.019C3.13057 -157.663 4.24246 -161.581 4.41175 -161.75C4.53266 -161.92 8.49929 -163.08 13.1915 -164.337ZM36.8913 -188.037L45.4293 -190.284L51.8645 -183.849L58.324 -177.39L56.052 -168.876C54.7951 -164.184 53.659 -160.241 53.5623 -160.144C53.4414 -160.024 49.5231 -158.912 44.8308 -157.655L36.3171 -155.383L29.8576 -161.842L23.3982 -168.302L25.6218 -176.719C26.8304 -181.363 27.9422 -185.281 28.1115 -185.45C28.2324 -185.619 32.1991 -186.78 36.8913 -188.037ZM60.5911 -211.736L69.1291 -213.984L75.5643 -207.549L82.0238 -201.089L79.7518 -192.576C78.4949 -187.883 77.3588 -183.941 77.2621 -183.844C77.1411 -183.723 73.2229 -182.611 68.5306 -181.355L60.0169 -179.082L53.5574 -185.542L47.0979 -192.001L49.3216 -200.418C50.5301 -205.062 51.642 -208.981 51.8113 -209.15C51.9322 -209.319 55.8989 -210.479 60.5911 -211.736ZM-72.8695 -37.1481L-64.3799 -39.3959L-57.9204 -32.9365L-51.4852 -26.5012L-53.8055 -17.8423L-56.1501 -9.1592L-64.809 -6.83881L-73.4921 -4.49425L-79.9516 -10.9537L-86.4352 -17.4374L-84.1873 -25.8302C-82.9788 -30.4741 -81.8185 -34.3923 -81.6493 -34.5616C-81.5283 -34.7309 -77.5617 -35.8912 -72.8695 -37.1481ZM-49.1697 -60.8478L-40.6801 -63.0957L-34.2206 -56.6362L-27.7854 -50.201L-30.1058 -41.5421L-32.4503 -32.859L-41.1092 -30.5386L-49.7923 -28.194L-56.2518 -34.6535L-62.6871 -41.0888L-60.4633 -49.5058C-59.2549 -54.1497 -58.1188 -58.0921 -57.9495 -58.2614C-57.8286 -58.4307 -53.8619 -59.591 -49.1697 -60.8478ZM-25.4941 -84.5234L-16.9803 -86.7955L-10.545 -80.3602L-4.08559 -73.9008L-6.40597 -65.2418L-8.75055 -56.5588L-17.4094 -54.2384L-26.0925 -51.8938L-32.552 -58.3533L-38.9873 -64.7885L-36.7636 -73.2056C-35.5551 -77.8495 -34.4431 -81.7677 -34.2739 -81.937C-34.153 -82.1063 -30.1864 -83.2666 -25.4941 -84.5234ZM-1.79432 -108.223L6.71946 -110.495L13.1547 -104.06L19.6142 -97.6005L17.2938 -88.9416L14.9492 -80.2585L6.29035 -77.9382L-2.39275 -75.5936L-8.8522 -82.0531L-15.2875 -88.4883L-13.0638 -96.9053C-11.8553 -101.549 -10.7434 -105.467 -10.5741 -105.637C-10.4532 -105.806 -6.48657 -106.966 -1.79432 -108.223ZM21.9296 -131.947L30.4192 -134.195L36.8787 -127.736L43.314 -121.3L40.9936 -112.641L38.649 -103.958L29.9901 -101.638L21.307 -99.2934L14.8476 -105.753L8.4123 -112.188L10.636 -120.605C11.8445 -125.249 12.9806 -129.191 13.1499 -129.361C13.2708 -129.53 17.2374 -130.69 21.9296 -131.947ZM45.6052 -155.623L54.119 -157.895L60.5543 -151.46L67.0138 -145L64.6934 -136.341L62.3488 -127.658L53.6899 -125.338L45.0068 -122.993L38.5474 -129.453L32.1121 -135.888L34.3358 -144.305C35.5443 -148.949 36.6562 -152.867 36.8255 -153.036C36.9464 -153.206 40.913 -154.366 45.6052 -155.623ZM69.305 -179.323L77.8188 -181.595L84.2541 -175.159L90.7136 -168.7L88.3932 -160.041L86.0486 -151.358L77.3897 -149.038L68.7066 -146.693L62.2713 -153.128L55.8119 -159.588L58.0356 -168.005C59.2441 -172.649 60.356 -176.567 60.5253 -176.736C60.6462 -176.905 64.6128 -178.066 69.305 -179.323ZM93.0774 -203.095L101.47 -205.343L107.954 -198.859L114.413 -192.4L112.093 -183.741L109.748 -175.058L101.089 -172.737L92.4064 -170.393L85.9711 -176.828L79.5116 -183.287L81.7354 -191.704C82.9439 -196.348 84.1041 -200.315 84.2976 -200.508C84.4911 -200.702 88.4335 -201.886 93.0774 -203.095ZM-62.2206 -5.31447L-55.7143 -7.03057L-49.2307 -0.69205L-42.7712 5.67068L-45.1158 14.4505L-47.4846 23.2061L-56.2402 25.5749L-65.02 27.9195L-71.4553 21.4842L-77.8422 15.0489L-75.5218 6.39003L-73.2014 -2.26889L-70.952 -2.92153C-69.7185 -3.28411 -65.7761 -4.37182 -62.2206 -5.31447ZM140.392 -190.363L146.827 -183.928L144.482 -175.148L142.114 -166.392L133.358 -164.023L124.578 -161.679L118.216 -168.138L111.877 -174.622L114.197 -183.329L116.518 -192.036L125.249 -194.381L133.956 -196.75L140.392 -190.363ZM-40.4316 -28.5067L-32.0145 -30.7303L-25.5309 -24.3918L-19.0715 -18.0291L-21.416 -9.24929L-23.7848 -0.493651L-32.5646 1.85091L-41.3445 4.19546L-47.683 -2.23979L-54.0215 -8.72341L-51.7978 -17.1404C-50.5651 -21.7601 -49.3806 -25.7026 -49.2114 -25.9202C-49.0179 -26.1137 -45.0513 -27.274 -40.4316 -28.5067ZM-16.7318 -52.2064L-8.31476 -54.4301L-1.83114 -48.0916L4.62832 -41.7289L2.28375 -32.9491L-0.0849965 -24.1934L-8.86482 -21.8489L-17.6447 -19.5043L-23.9832 -25.9396L-30.3217 -32.4232L-28.098 -40.8402C-26.8653 -45.4599 -25.6809 -49.4024 -25.4874 -49.5958C-25.2939 -49.7893 -21.3515 -50.9737 -16.7318 -52.2064ZM6.96799 -75.9062L15.385 -78.1299L21.8687 -71.7914L28.3281 -65.4287L25.9835 -56.6489L23.6148 -47.8932L14.8592 -45.5245L6.07932 -43.1799L-0.283396 -49.6394L-6.62191 -56.123L-4.39823 -64.54C-3.16552 -69.1597 -1.98107 -73.1021 -1.78761 -73.2956C-1.59414 -73.4891 2.3483 -74.6735 6.96799 -75.9062ZM30.6678 -99.606L39.0848 -101.83L45.5684 -95.4912L52.0279 -89.1285L49.6833 -80.3486L47.3146 -71.593L38.5589 -69.2242L29.7791 -66.8797L23.4164 -73.3391L17.0779 -79.8228L19.3016 -88.2398C20.5343 -92.8595 21.7187 -96.8019 21.9122 -96.9954C22.1056 -97.1889 26.0481 -98.3733 30.6678 -99.606ZM54.3676 -123.306L62.7846 -125.529L69.2682 -119.191L75.7277 -112.828L73.3831 -104.048L71.0144 -95.2928L62.2587 -92.924L53.4789 -90.5795L47.1162 -97.0389L40.7777 -103.523L43.0013 -111.94C44.234 -116.559 45.4185 -120.502 45.612 -120.695C45.8054 -120.889 49.7479 -122.073 54.3676 -123.306ZM78.0673 -147.006L86.4844 -149.229L92.968 -142.891L99.4033 -136.552L97.0587 -127.772L94.7141 -118.993L85.9585 -116.624L77.1787 -114.279L70.816 -120.739L64.4774 -127.222L66.7011 -135.639C67.9338 -140.259 69.0941 -144.226 69.2876 -144.419C69.5052 -144.588 73.4477 -145.773 78.0673 -147.006ZM101.767 -170.705L110.184 -172.929L116.668 -166.591L123.103 -160.252L120.758 -151.472L118.414 -142.692L109.658 -140.324L100.878 -137.979L94.5157 -144.438L88.1772 -150.922L90.4009 -159.339C91.6336 -163.959 92.7939 -167.925 92.9873 -168.119C93.205 -168.288 97.1474 -169.473 101.767 -170.705ZM-55.5384 27.5826L-46.9037 25.238L-40.4926 31.6491L-34.0815 38.0602L-36.4503 46.8158L-38.7948 55.5473L-47.5747 57.9402L-56.3303 60.309L-62.7414 53.8979L-69.1524 47.4868L-66.8321 38.7795C-65.551 34.0147 -64.4391 30.0481 -64.3424 29.9997C-64.2456 29.9514 -60.279 28.8395 -55.5384 27.5826ZM-31.8386 3.88284L-23.2039 1.53826L-16.7928 7.94935L-10.3817 14.3604L-12.7505 23.116L-15.0951 31.8475L-23.8749 34.2404L-32.6305 36.6092L-39.0416 30.1981L-45.4285 23.7628L-43.1323 15.0798C-41.8512 10.315 -40.7151 6.37251 -40.6426 6.29996C-40.5458 6.2516 -36.5792 5.13971 -31.8386 3.88284ZM-8.1388 -19.8169L0.495904 -22.1615L6.90699 -15.7504L13.3181 -9.33937L10.9493 -0.583738L8.60474 8.14771L-0.175084 10.5407L-8.93072 12.9094L-15.3418 6.49834L-21.7287 0.0630653L-19.4325 -8.62002C-18.1514 -13.3848 -17.0154 -17.3273 -16.9428 -17.3998C-16.8461 -17.4482 -12.8794 -18.5601 -8.1388 -19.8169ZM15.561 -43.5167L24.1957 -45.8613L30.6068 -39.4502L37.0178 -33.0392L34.6491 -24.2835L32.3045 -15.5037L23.5247 -13.1591L14.7691 -10.7904L8.358 -17.2014L1.97109 -23.6367L4.2673 -32.3198C5.54836 -37.0846 6.68444 -41.0271 6.75699 -41.0996C6.85373 -41.148 10.7962 -42.2357 15.561 -43.5167ZM39.2608 -67.2165L47.8955 -69.5611L54.3066 -63.15L60.7176 -56.7389L58.3489 -47.9833L56.0043 -39.2035L47.2245 -36.8589L38.4689 -34.4902L32.0578 -40.9012L25.6467 -47.3123L27.9913 -55.9954C29.2481 -60.7844 30.3842 -64.7268 30.481 -64.7752C30.5535 -64.8478 34.496 -65.9355 39.2608 -67.2165ZM62.9605 -90.9163L71.5953 -93.2609L78.0063 -86.8498L84.4174 -80.4387L82.0487 -71.6831L79.7041 -62.9032L70.9243 -60.5587L62.1686 -58.1899L55.7576 -64.601L49.3465 -71.0121L51.6911 -79.6952C52.9479 -84.4842 54.084 -88.4266 54.1807 -88.475C54.2533 -88.5475 58.1957 -89.6352 62.9605 -90.9163ZM86.6603 -114.616L95.2709 -116.936L101.706 -110.55L108.117 -104.138L105.748 -95.3829L103.404 -86.603L94.624 -84.2585L85.8684 -81.8897L79.4574 -88.3008L73.0463 -94.7119L75.3908 -103.395C76.6477 -108.184 77.7838 -112.126 77.8805 -112.175C77.9531 -112.247 81.9197 -113.359 86.6603 -114.616ZM110.36 -138.316L118.971 -140.636L125.406 -134.249L131.817 -127.838L129.448 -119.083L127.055 -110.303L118.324 -107.958L109.568 -105.59L103.157 -112.001L96.746 -118.412L99.0664 -127.119C100.347 -131.884 101.484 -135.826 101.556 -135.899C101.653 -135.947 105.62 -137.059 110.36 -138.316ZM134.06 -162.016L142.67 -164.336L149.106 -157.949L155.517 -151.538L153.148 -142.782L150.755 -134.003L142.024 -131.658L133.268 -129.289L126.857 -135.7L120.446 -142.111L122.766 -150.819C124.047 -155.584 125.183 -159.526 125.256 -159.599C125.353 -159.647 129.319 -160.759 134.06 -162.016ZM157.784 -185.74L166.394 -188.06L172.805 -181.649L179.217 -175.238L176.848 -166.482L174.455 -157.702L165.723 -155.358L156.968 -152.989L150.557 -159.4L144.146 -165.811L146.466 -174.519C147.747 -179.283 148.883 -183.226 148.98 -183.323C149.101 -183.395 153.067 -184.507 157.784 -185.74ZM-46.9454 59.9722L-38.2139 57.6276L-31.7786 64.0629L-25.3918 70.4981L-27.7363 79.2296L-30.1293 87.961L-38.8365 90.2814L-47.4954 92.6018L-54.0032 86.2391L-60.4627 79.8764L-58.1665 71.1933C-56.8613 66.4043 -55.8219 62.4618 -55.7736 62.4134C-55.7252 62.3651 -51.7585 61.3016 -46.9454 59.9722ZM-23.2698 36.2966L-14.4899 33.952L-8.07885 40.3631L-1.69197 46.7983L-4.06071 55.554L-6.42948 64.2612L-15.1367 66.5816L-23.7956 68.902L-30.2793 62.5635L-36.7387 56.2008L-34.4425 47.5177C-33.1615 42.7045 -32.0979 38.7862 -32.0496 38.7379C-32.0496 38.6895 -28.0588 37.6018 -23.2698 36.2966ZM0.430029 12.5968L9.20985 10.2522L15.6209 16.6633L22.0078 23.0985L19.6391 31.8542L17.2703 40.5614L8.56304 42.8818L-0.0958616 45.2022L-6.57948 38.8637L-13.0389 32.501L-10.7427 23.8179C-9.46169 19.0047 -8.39815 15.0865 -8.34978 15.0381C-8.34981 14.9897 -4.35898 13.902 0.430029 12.5968ZM24.1298 -11.103L32.9096 -13.4476L39.3207 -7.0365L45.7076 -0.60125L43.3389 8.1544L40.9701 16.8617L32.2628 19.182L23.6039 21.5024L17.1203 15.1639L10.6609 8.8012L12.9571 0.118114C14.2381 -4.69508 15.3016 -8.61333 15.35 -8.6617C15.35 -8.71009 19.3408 -9.79779 24.1298 -11.103ZM47.8296 -34.8028L56.6094 -37.1474L62.9721 -30.6879L69.3106 -24.2043L66.9903 -15.5454L64.6699 -6.83813L55.9868 -4.54192L47.3037 -2.19735L40.8201 -8.53587L34.3606 -14.8986L36.6568 -23.5817C37.9379 -28.3949 39.0014 -32.3131 39.0498 -32.3615C39.0498 -32.4099 43.0406 -33.4976 47.8296 -34.8028ZM71.5294 -58.5026L80.3092 -60.8471L86.6719 -54.3877L93.0104 -47.9041L90.6901 -39.2452L88.3697 -30.5379L79.6866 -28.2417L71.0035 -25.8971L64.5199 -32.2357L58.0604 -38.5984L60.3566 -47.2815C61.6377 -52.0946 62.7012 -56.0129 62.7496 -56.0613C62.7495 -56.1097 66.7404 -57.1974 71.5294 -58.5026ZM95.2292 -82.2024L104.009 -84.5469L110.372 -78.0875L116.71 -71.6039L114.39 -62.945L112.069 -54.2377L103.386 -51.9415L94.7033 -49.5969L88.2197 -55.9354L81.7602 -62.2981L84.0564 -70.9812C85.3374 -75.7944 86.401 -79.7127 86.4494 -79.7611C86.4493 -79.8094 90.4402 -80.8971 95.2292 -82.2024ZM118.929 -105.902L127.709 -108.247L134.071 -101.787L140.41 -95.3036L138.09 -86.6447L135.769 -77.9375L127.062 -75.5687L118.306 -73.2L111.871 -79.5869L105.46 -85.9979L107.78 -94.7052C109.037 -99.4942 110.101 -103.412 110.149 -103.461C110.149 -103.509 114.14 -104.597 118.929 -105.902ZM142.629 -129.602L151.409 -131.946L157.771 -125.487L164.11 -119.003L161.789 -110.345L159.469 -101.637L150.762 -99.2685L142.006 -96.8997L135.571 -103.287L129.16 -109.698L131.48 -118.405C132.737 -123.194 133.801 -127.112 133.849 -127.161C133.849 -127.209 137.84 -128.297 142.629 -129.602ZM166.329 -153.302L175.108 -155.646L181.471 -149.187L187.81 -142.703L185.489 -134.044L183.169 -125.337L174.462 -122.968L165.706 -120.6L159.271 -126.986L152.86 -133.398L155.18 -142.105C156.437 -146.894 157.5 -150.812 157.549 -150.86C157.549 -150.909 161.54 -151.996 166.329 -153.302ZM190.077 -177.05L198.784 -179.37L205.147 -172.911L211.509 -166.403L209.189 -157.744L206.869 -149.037L198.137 -146.644L189.406 -144.299L182.97 -150.686L176.535 -157.121L178.88 -165.805C180.137 -170.594 181.224 -174.536 181.248 -174.609C181.297 -174.657 185.263 -175.769 190.077 -177.05ZM-37.8444 92.2408L-29.5242 90.0171L-23.1615 96.4766L-16.7987 102.984L-19.0466 111.377C-20.2551 116.021 -21.4396 119.964 -21.6331 120.157C-21.8265 120.35 -25.7931 121.511 -30.4128 122.743L-38.8299 124.967L-45.3377 118.604L-51.7971 112.242L-49.4767 103.583C-48.1715 98.7938 -46.9387 94.803 -46.6726 94.6821C-46.4066 94.5612 -42.4641 93.4735 -37.8444 92.2408ZM-14.5317 68.6377L-5.82439 66.3173L0.538329 72.7768L6.90105 79.2846L4.65317 87.6774C3.44466 92.3213 2.2602 96.2637 2.06673 96.4572C1.87326 96.6507 -2.09336 97.811 -6.71305 99.0437L-15.1301 101.267L-21.6137 94.9288L-28.0732 88.5661L-25.7528 79.9072C-24.4717 75.094 -23.384 71.1516 -23.3356 71.1032C-23.2873 71.0548 -19.3206 69.943 -14.5317 68.6377ZM9.16813 44.9379L17.8754 42.6175L24.2381 49.077L30.6008 55.5848L28.353 63.9777C27.1444 68.6215 25.96 72.564 25.7665 72.7574C25.573 72.9509 21.6064 74.1112 16.9867 75.3439L8.5697 77.5676L2.08607 71.229L-4.37338 64.8663L-2.05298 56.2074C-0.771927 51.3942 0.315772 47.4518 0.364142 47.4034C0.412506 47.3551 4.37914 46.2432 9.16813 44.9379ZM32.8679 21.2381L41.5752 18.9177L47.9379 25.3772L54.3006 31.885L52.0527 40.2779C50.8442 44.9217 49.6598 48.8642 49.4663 49.0576C49.2728 49.2511 45.3062 50.4114 40.6865 51.6441L32.2695 53.8678L25.7859 47.5292L19.3264 41.1665L21.6468 32.5076C22.9279 27.6945 24.0156 23.752 24.0639 23.7036C24.1123 23.6553 28.0789 22.5434 32.8679 21.2381ZM56.5677 -2.46165L65.275 -4.78203L71.6377 1.67742L77.9762 8.16104L75.7525 16.5781C74.5198 21.1978 73.3595 25.1644 73.1661 25.3579C72.9726 25.5513 69.006 26.7116 64.3863 27.9443L55.9693 30.168L49.4856 23.8295L43.0262 17.4667L45.3466 8.80786C46.6276 3.99467 47.7153 0.0522218 47.7637 0.00385205C47.8121 -0.0445177 51.7787 -1.1564 56.5677 -2.46165ZM80.2675 -26.1614L88.9748 -28.4818L95.3375 -22.0224L101.676 -15.5387L99.4523 -7.1217C98.2196 -2.50201 97.0593 1.46461 96.8659 1.65808C96.6724 1.85155 92.7058 3.01182 88.0861 4.24452L79.6691 6.4682L73.1854 0.129669L66.726 -6.23304L69.0464 -14.8919C70.3274 -19.7051 71.4151 -23.6476 71.4635 -23.6959C71.5119 -23.7443 75.4785 -24.8562 80.2675 -26.1614ZM103.967 -49.8612L112.675 -52.1816L119.037 -45.7222L125.376 -39.2385L123.152 -30.8215C121.919 -26.2018 120.759 -22.2352 120.566 -22.0417C120.372 -21.8482 116.406 -20.688 111.786 -19.4553L103.369 -17.2316L96.8852 -23.5701L90.4258 -29.9328L92.7461 -38.5917C94.0272 -43.4049 95.1149 -47.3473 95.1633 -47.3957C95.2116 -47.4441 99.1783 -48.556 103.967 -49.8612ZM127.667 -73.561L136.374 -75.8814L142.737 -69.4219L149.076 -62.9383L146.852 -54.5213C145.619 -49.9016 144.459 -45.935 144.265 -45.7415C144.072 -45.548 140.105 -44.3878 135.486 -43.155L127.069 -40.9314L120.585 -47.2699L114.126 -53.6326L116.446 -62.2915C117.727 -67.1047 118.815 -71.0471 118.863 -71.0955C118.911 -71.1439 122.878 -72.2557 127.667 -73.561ZM151.367 -97.2608L160.074 -99.5812L166.437 -93.1217L172.775 -86.6381L170.552 -78.2211C169.319 -73.6014 168.159 -69.6347 167.965 -69.4413C167.772 -69.2478 163.829 -68.0633 159.185 -66.8548L150.793 -64.607L144.285 -70.9697L137.825 -77.3324L140.146 -85.9913C141.427 -90.8045 142.514 -94.7469 142.563 -94.7953C142.611 -94.8437 146.578 -95.9555 151.367 -97.2608ZM175.067 -120.961L183.774 -123.281L190.137 -116.822L196.475 -110.338L194.251 -101.921C193.019 -97.3012 191.858 -93.3345 191.665 -93.1411C191.472 -92.9476 187.529 -91.7631 182.885 -90.5546L174.492 -88.3067L167.985 -94.6695L161.525 -101.032L163.845 -109.691C165.127 -114.504 166.214 -118.447 166.263 -118.495C166.311 -118.543 170.278 -119.655 175.067 -120.961ZM198.766 -144.66L207.474 -146.981L213.836 -140.521L220.175 -134.038L217.951 -125.621C216.719 -121.001 215.558 -117.034 215.365 -116.841C215.171 -116.647 211.229 -115.463 206.585 -114.254L198.192 -112.007L191.684 -118.369L185.225 -124.732L187.545 -133.391C188.826 -138.204 189.914 -142.146 189.962 -142.195C190.011 -142.243 193.977 -143.355 198.766 -144.66ZM222.853 -168.457L231.149 -170.705L237.512 -164.245L243.875 -157.737L241.651 -149.32C240.418 -144.701 239.258 -140.734 239.065 -140.541C238.871 -140.347 234.929 -139.163 230.285 -137.954L221.892 -135.706L215.384 -142.069L208.925 -148.432L211.221 -157.115C212.55 -162.025 213.759 -165.895 214.073 -166.016C214.339 -166.136 218.306 -167.248 222.853 -168.457ZM-29.5659 124.703L-21.0279 122.455L-14.5926 128.89L-8.15737 135.326L-10.4536 143.912C-11.6863 148.628 -12.9433 152.595 -13.2093 152.764C-13.4754 152.885 -17.3936 153.997 -21.9166 155.181L-30.1401 157.357L-36.5996 150.897L-43.059 144.438L-40.8354 136.021C-39.6268 131.377 -38.5149 127.459 -38.3457 127.289C-38.2248 127.12 -34.2581 125.96 -29.5659 124.703ZM-5.86609 101.003L2.67187 98.7552L9.10714 105.19L15.5424 111.626L13.2946 120.164C12.0377 124.856 10.9258 128.774 10.8291 128.871C10.7081 128.992 6.7415 130.104 2.00087 131.361L-6.65802 133.681L-13.0207 127.318L-19.3834 120.956L-17.1356 112.418C-15.9271 107.725 -14.791 103.783 -14.6459 103.589C-14.525 103.42 -10.5583 102.26 -5.86609 101.003ZM17.8337 77.3033L26.3717 75.0554L32.8069 81.4907L39.2422 87.926L36.9943 96.4639C35.7375 101.156 34.6256 105.074 34.5288 105.171C34.4079 105.292 30.4413 106.404 25.7007 107.661L17.0418 109.981L10.6791 103.619L4.31638 97.2559L6.56424 88.7179C7.77274 84.0256 8.90882 80.0832 9.05391 79.8897C9.17482 79.7204 13.1414 78.5601 17.8337 77.3033ZM41.5335 53.6035L50.0714 51.3556L56.5067 57.7909L62.942 64.2262L60.6941 72.7641C59.4373 77.4564 58.3254 81.3747 58.2286 81.4714C58.1077 81.5923 54.1411 82.7042 49.4004 83.9611L40.7415 86.2815L34.3789 79.9188L28.0162 73.5561L30.264 65.0181C31.4725 60.3258 32.6086 56.3834 32.7537 56.1899C32.8746 56.0206 36.8412 54.8604 41.5335 53.6035ZM65.2333 29.9037L73.7712 27.6559L80.2065 34.0911L86.6418 40.5264L84.3939 49.0644C83.137 53.7566 82.0251 57.6749 81.9284 57.7716C81.8075 57.8925 77.8409 59.0044 73.1002 60.2613L64.4413 62.5817L58.0786 56.219L51.7159 49.8563L53.9638 41.3183C55.1723 36.6261 56.3084 32.6836 56.4535 32.4901C56.5744 32.3208 60.541 31.1606 65.2333 29.9037ZM88.933 6.20392L97.471 3.95607L103.906 10.3913L110.342 16.8266L108.094 25.3646C106.837 30.0568 105.701 33.9993 105.604 34.096C105.507 34.1927 101.565 35.3288 96.8726 36.5857L88.3346 38.8335L81.8993 32.3983L75.4641 25.963L77.6636 17.5218C78.8963 12.9021 79.984 8.95965 80.1533 8.79036C80.2742 8.62106 84.2408 7.4608 88.933 6.20392ZM112.633 -17.4959L121.171 -19.7437L127.606 -13.3084L134.041 -6.87318L131.793 1.66479C130.537 6.35703 129.401 10.2995 129.304 10.3962C129.207 10.493 125.265 11.629 120.572 12.8859L112.034 15.1338L105.599 8.69849L99.1639 2.26323L101.363 -6.178C102.596 -10.7977 103.684 -14.7401 103.853 -14.9094C103.974 -15.0787 107.941 -16.239 112.633 -17.4959ZM136.333 -41.1956L144.871 -43.4435L151.306 -37.0082L157.741 -30.573L155.493 -22.035C154.236 -17.3427 153.1 -13.4003 153.004 -13.3036C152.907 -13.2068 148.964 -12.0708 144.272 -10.8139L135.734 -8.56602L129.299 -15.0013L122.864 -21.4366L125.063 -29.8778C126.296 -34.4975 127.384 -38.4399 127.553 -38.6092C127.674 -38.7785 131.64 -39.9388 136.333 -41.1956ZM160.105 -64.8712L168.764 -67.1916L175.127 -60.8289L181.489 -54.4663L179.169 -45.8073C177.912 -41.0667 176.8 -37.1001 176.679 -36.9792C176.582 -36.8824 172.664 -35.7705 167.972 -34.5137L159.434 -32.2658L152.999 -38.7011L146.563 -45.1364L148.763 -53.5776C149.996 -58.1973 151.083 -62.1397 151.228 -62.2848C151.349 -62.4541 155.364 -63.6144 160.105 -64.8712ZM183.805 -88.571L192.464 -90.8914L198.826 -84.5287L205.189 -78.166L202.869 -69.5071C201.612 -64.7665 200.5 -60.7999 200.379 -60.679C200.282 -60.5822 196.364 -59.4703 191.672 -58.2134L183.134 -55.9656L176.698 -62.4009L170.263 -68.8361L172.463 -77.2774C173.695 -81.897 174.783 -85.8395 174.928 -85.9846C175.049 -86.1539 179.064 -87.3141 183.805 -88.571ZM207.505 -112.271L216.163 -114.591L222.526 -108.229L228.889 -101.866L226.568 -93.2069C225.312 -88.4663 224.2 -84.4997 224.079 -84.3787C223.982 -84.282 220.064 -83.1701 215.371 -81.9132L206.834 -79.6654L200.398 -86.1007L193.963 -92.5359L196.162 -100.977C197.395 -105.597 198.483 -109.539 198.628 -109.684C198.749 -109.854 202.764 -111.014 207.505 -112.271ZM231.204 -135.971L239.863 -138.291L246.226 -131.928L252.589 -125.566L250.268 -116.907C249.011 -112.166 247.899 -108.199 247.779 -108.079C247.682 -107.982 243.764 -106.87 239.071 -105.613L230.533 -103.365L224.098 -109.8L217.663 -116.236L219.862 -124.677C221.095 -129.297 222.183 -133.239 222.328 -133.384C222.449 -133.553 226.464 -134.714 231.204 -135.971ZM254.856 -159.719L263.345 -161.967L269.805 -155.507L276.264 -149.048L274.089 -140.824C272.905 -136.301 271.793 -132.383 271.672 -132.117C271.502 -131.851 267.536 -130.594 262.819 -129.361L254.233 -127.065L247.798 -133.5L241.363 -139.935L243.562 -148.377C244.795 -152.996 245.907 -156.963 246.076 -157.132C246.197 -157.302 250.163 -158.462 254.856 -159.719ZM2.9204 133.344L11.3132 131.096L17.8211 137.459L24.2805 143.822L22.0326 152.311C20.7516 156.979 19.5671 160.97 19.3736 161.164C19.1802 161.357 15.2136 162.566 10.5213 163.823L2.05592 166.095L-4.30679 159.635L-10.6695 153.127L-8.44583 144.71C-7.21312 140.091 -6.05285 136.124 -5.85938 135.931C-5.66591 135.737 -1.72348 134.553 2.9204 133.344ZM26.6202 109.644L35.013 107.397L41.5209 113.759L47.9803 120.122L45.6115 128.878L43.267 137.657L34.4872 140.002L25.7315 142.371L19.3688 135.911L13.0303 129.428L15.254 121.011C16.4867 116.391 17.6469 112.424 17.8404 112.231C18.0339 112.037 21.9763 110.853 26.6202 109.644ZM50.32 85.9447L58.7128 83.6968L65.2206 90.0595L71.6801 96.4222L69.3113 105.178L66.9668 113.958L58.1869 116.302L49.4313 118.671L43.0686 112.212L36.7301 105.728L38.9537 97.3109C40.1864 92.6912 41.3467 88.7246 41.5402 88.5311C41.7337 88.3376 45.6761 87.1532 50.32 85.9447ZM74.0198 62.2449L82.4126 59.997L88.9204 66.3597L95.3799 72.7224L93.0111 81.4781L90.6665 90.2579L81.8867 92.6025L73.1311 94.9712L66.7684 88.5118L60.4298 82.0281L62.6535 73.6111C63.8862 68.9914 65.0465 65.0248 65.24 64.8313C65.4334 64.6379 69.3759 63.4534 74.0198 62.2449ZM97.7195 38.5451L106.137 36.3214L112.62 42.6599L119.08 49.0226L116.711 57.7783L114.366 66.5581L105.587 68.9027L96.8309 71.2714L90.4682 64.812L84.1296 58.3283L86.3533 49.9113C87.586 45.2916 88.7463 41.325 88.9398 41.1315C89.1332 40.9381 93.0998 39.7778 97.7195 38.5451ZM121.419 14.8453L129.836 12.6216L136.32 18.9602L142.779 25.3229L140.411 34.0785L138.066 42.8583L129.286 45.2029L120.531 47.5716L114.168 41.1122L107.829 34.6286L110.053 26.2115C111.286 21.5918 112.446 17.6252 112.64 17.4318C112.833 17.2383 116.8 16.078 121.419 14.8453ZM145.119 -8.85448L153.536 -11.0782L160.02 -4.73963L166.479 1.62307L164.11 10.3787L161.766 19.1585L152.986 21.5031L144.23 23.8718L137.868 17.4124L131.529 10.9288L133.753 2.51174C134.986 -2.10794 136.146 -6.07456 136.339 -6.26803C136.533 -6.4615 140.499 -7.62177 145.119 -8.85448ZM168.819 -32.5543L177.236 -34.7779L183.72 -28.4394L190.179 -22.0767L187.81 -13.3211L185.466 -4.54125L176.686 -2.19667L167.93 0.172062L161.568 -6.28738L155.229 -12.771L157.453 -21.188C158.685 -25.8077 159.846 -29.7743 160.039 -29.9678C160.233 -30.1613 164.199 -31.3216 168.819 -32.5543ZM192.519 -56.254L200.936 -58.4777L207.419 -52.1392L213.879 -45.7765L211.51 -37.0209L209.165 -28.241L200.386 -25.8965L191.63 -23.5277L185.267 -29.9872L178.905 -36.495L181.152 -44.8878C182.361 -49.5317 183.545 -53.4741 183.739 -53.6676C183.932 -53.8611 187.899 -55.0213 192.519 -56.254ZM216.218 -79.9538L224.635 -82.1775L231.119 -75.839L237.579 -69.4763L235.21 -60.7206L232.865 -51.9408L224.085 -49.5962L215.33 -47.2275L208.967 -53.6869L202.604 -60.1948L204.852 -68.5876C206.061 -73.2315 207.245 -77.1739 207.439 -77.3674C207.632 -77.5608 211.599 -78.7211 216.218 -79.9538ZM239.918 -103.654L248.335 -105.877L254.819 -99.5388L261.278 -93.1761L258.91 -84.4204L256.565 -75.6406L247.785 -73.296L239.03 -70.9273L232.667 -77.3867L226.304 -83.8946L228.552 -92.2874C229.761 -96.9313 230.945 -100.874 231.138 -101.067C231.332 -101.261 235.299 -102.421 239.918 -103.654ZM263.618 -127.353L272.035 -129.577L278.543 -123.214L285.002 -116.852L282.73 -108.386C281.473 -103.694 280.265 -99.7274 280.071 -99.5339C279.878 -99.3405 275.887 -98.156 271.219 -96.8749L262.729 -94.6271L256.367 -101.086L250.004 -107.594L252.252 -115.987C253.46 -120.631 254.645 -124.573 254.838 -124.767C255.032 -124.96 258.998 -126.121 263.618 -127.353ZM35.189 142.01L43.7995 139.689L50.2348 146.076L56.67 152.512L54.3013 161.267L51.9325 170.071L43.1769 172.44L34.4213 174.76L28.0586 168.301L21.6958 161.793L23.9679 153.183C25.2005 148.418 26.2882 144.524 26.385 144.475C26.4817 144.379 30.4242 143.291 35.189 142.01ZM58.8888 118.31L67.4993 115.99L73.9345 122.376L80.3456 128.788L78.0011 137.567L75.6323 146.323L66.8767 148.692L58.0968 151.036L51.7341 144.577L45.3956 138.093L47.6676 129.483C48.9003 124.718 49.988 120.824 50.0848 120.775C50.1573 120.703 54.124 119.591 58.8888 118.31ZM82.5886 94.6102L91.1991 92.2898L97.6343 98.6767L104.045 105.088L101.701 113.868L99.3321 122.623L90.5765 124.992L81.7966 127.337L75.4339 120.877L69.0954 114.393L71.3674 105.783C72.6001 101.018 73.6878 97.124 73.7846 97.0757C73.8571 97.0031 77.8237 95.8913 82.5886 94.6102ZM106.288 70.9104L114.899 68.59L121.334 74.9769L127.745 81.388L125.401 90.1678L123.032 98.9234L114.276 101.292L105.496 103.637L99.1337 97.1773L92.7952 90.6937L95.0672 82.0832C96.2999 77.3183 97.3876 73.4243 97.4844 73.3759C97.5569 73.3034 101.524 72.1915 106.288 70.9104ZM129.77 47.3315L138.502 44.987L144.986 51.3255L151.445 57.6882L149.1 66.468L146.732 75.2237L137.976 77.5924L129.196 79.937L122.833 73.4775L116.495 66.9939L118.767 58.3834C120 53.6186 121.015 49.7487 121.015 49.7003C121.015 49.6519 124.957 48.6126 129.77 47.3315ZM153.47 23.6317L162.202 21.2872L168.685 27.6257L175.145 33.9884L172.8 42.7682L170.431 51.5239L161.676 53.8926L152.896 56.2372L146.533 49.7777L140.195 43.2941L142.467 34.6836C143.699 29.9188 144.715 26.0489 144.715 26.0005C144.715 25.9521 148.657 24.9128 153.47 23.6317ZM177.17 -0.068039L185.901 -2.41262L192.385 3.92591L198.845 10.2886L196.5 19.0685L194.131 27.8241L185.376 30.1929L176.596 32.5374L170.233 26.078L163.895 19.5943L166.167 10.9838C167.399 6.21899 168.414 2.34909 168.414 2.30072C168.414 2.25234 172.357 1.213 177.17 -0.068039ZM200.87 -23.7678L209.601 -26.1124L216.085 -19.7739L222.544 -13.4112L220.2 -4.63131L217.831 4.12431L209.075 6.49306L200.296 8.83763L193.884 2.42655L187.498 -4.00872L189.818 -12.6676C191.075 -17.4566 192.114 -21.3507 192.114 -21.3991C192.114 -21.4474 196.057 -22.4868 200.87 -23.7678ZM224.57 -47.4676L233.301 -49.8122L239.785 -43.4737L246.244 -37.1109L243.9 -28.3311L241.531 -19.5755L232.775 -17.2067L223.995 -14.8622L217.584 -21.2732L211.197 -27.7085L213.518 -36.3674C214.775 -41.1564 215.814 -45.0505 215.814 -45.0989C215.814 -45.1472 219.756 -46.1866 224.57 -47.4676ZM248.269 -71.1674L257.001 -73.512L263.484 -67.1734L269.944 -60.8107L267.599 -52.0309L265.231 -43.2753L256.475 -40.9065L247.695 -38.5619L241.284 -44.973L234.897 -51.4083L237.218 -60.0672C238.474 -64.8562 239.514 -68.7503 239.514 -68.7986C239.514 -68.847 243.456 -69.8863 248.269 -71.1674ZM271.969 -94.8672L280.701 -97.2118L287.208 -90.849L293.668 -84.4863L291.348 -75.7307L288.979 -66.975L280.175 -64.6063L271.419 -62.2375L264.984 -68.6728L258.597 -75.1081L260.917 -83.767C262.174 -88.556 263.214 -92.45 263.214 -92.4984C263.214 -92.5468 267.156 -93.5861 271.969 -94.8672ZM67.6269 150.7L76.2374 148.379L82.6485 154.79L89.0596 161.201L86.6666 169.981L84.3221 178.761L75.5422 181.105L66.8108 183.45L60.3997 177.039L53.9886 170.628L56.309 161.921C57.5901 157.156 58.702 153.189 58.8229 153.117C58.9196 153.068 62.8863 151.956 67.6269 150.7ZM91.3267 127L99.9372 124.679L106.348 131.09L112.759 137.501L110.391 146.257L108.022 155.013L99.2662 157.382L90.5348 159.726L84.0995 153.339L77.6884 146.928L80.0088 138.221C81.2899 133.456 82.4018 129.489 82.5227 129.417C82.6194 129.369 86.5861 128.257 91.3267 127ZM115.026 103.3L123.637 100.98L130.048 107.391L136.459 113.802L134.09 122.557L131.722 131.313L122.966 133.682L114.235 136.026L107.799 129.639L101.388 123.228L103.709 114.521C104.99 109.756 106.102 105.79 106.222 105.717C106.319 105.669 110.286 104.557 115.026 103.3ZM138.726 79.6002L147.337 77.2798L153.748 83.6908L160.159 90.1019L157.79 98.8576L155.397 107.589L146.666 109.982L137.934 112.327L131.499 105.94L125.088 99.5285L127.408 90.8213C128.689 86.0565 129.801 82.0898 129.922 82.0173C130.019 81.9689 133.986 80.857 138.726 79.6002ZM162.426 55.9004L171.037 53.58L177.448 59.9911L183.859 66.4021L181.49 75.1578L179.097 83.8892L170.366 86.2822L161.61 88.6509L155.199 82.2398L148.788 75.8288L151.108 67.1215C152.389 62.3567 153.501 58.39 153.622 58.3175C153.719 58.2692 157.685 57.1573 162.426 55.9004ZM186.126 32.2006L194.736 29.8802L201.147 36.2913L207.558 42.7024L205.19 51.458L202.797 60.1894L194.065 62.5824L185.31 64.9511L178.899 58.5401L172.488 52.129L174.808 43.4217C176.089 38.6569 177.201 34.6903 177.322 34.6177C177.419 34.5694 181.385 33.4575 186.126 32.2006ZM209.826 8.50082L218.436 6.18042L224.847 12.5915L231.234 19.0268L228.89 27.7582L226.497 36.4896L217.765 38.8826L209.009 41.2513L202.598 34.8403L196.187 28.4292L198.508 19.7219C199.789 14.9571 200.901 10.9905 201.022 10.9179C201.118 10.8696 205.085 9.75769 209.826 8.50082ZM233.525 -15.199L242.136 -17.5194L248.547 -11.1083L254.934 -4.67302L252.589 4.05842L250.221 12.8141L241.465 15.1828L232.709 17.5516L226.298 11.1405L219.887 4.72942L222.208 -3.97785C223.489 -8.74267 224.6 -12.7093 224.697 -12.7577C224.818 -12.8302 228.761 -13.9179 233.525 -15.199ZM257.225 -38.8987L265.836 -41.2191L272.247 -34.8081L278.634 -28.3728L276.289 -19.6414L273.92 -10.8857L265.165 -8.51696L256.409 -6.14822L249.998 -12.5593L243.587 -18.9704L245.907 -27.6776C247.188 -32.4425 248.3 -36.4091 248.397 -36.4574C248.518 -36.53 252.46 -37.6177 257.225 -38.8987ZM280.925 -62.5985L289.535 -64.9189L295.947 -58.5079L302.358 -52.0968L300.013 -43.3653L297.669 -34.5855L288.889 -32.2409L280.109 -29.848L273.698 -36.2591L267.287 -42.6702L269.607 -51.3774C270.888 -56.1422 272 -60.1089 272.097 -60.1572C272.218 -60.2298 276.16 -61.3175 280.925 -62.5985ZM99.9197 159.389L108.627 157.069L114.99 163.528L121.328 170.012L119.008 178.719L116.687 187.426L107.956 189.771L99.2487 192.14L92.8134 185.753L86.3782 179.318L88.7227 170.635C89.9796 165.846 91.0431 161.879 91.0915 161.831C91.1399 161.782 95.1065 160.67 99.9197 159.389ZM123.619 135.689L132.327 133.369L138.689 139.829L145.028 146.312L142.804 154.729C141.572 159.349 140.411 163.316 140.218 163.509C140 163.678 136.058 164.863 131.438 166.095L123.021 168.319L116.537 161.981L110.102 155.642L112.398 146.959C113.679 142.146 114.743 138.179 114.791 138.131C114.84 138.082 118.806 136.971 123.619 135.689ZM147.319 111.99L156.027 109.669L162.389 116.129L168.728 122.612L166.504 131.029C165.271 135.649 164.111 139.616 163.918 139.809C163.7 139.978 159.758 141.163 155.138 142.396L146.721 144.619L140.237 138.281L133.802 131.942L136.098 123.259C137.379 118.446 138.443 114.479 138.491 114.431C138.539 114.383 142.506 113.271 147.319 111.99ZM170.995 88.3141L179.726 85.9695L186.089 92.429L192.428 98.9126L190.204 107.33C188.971 111.949 187.787 115.892 187.593 116.085C187.4 116.279 183.457 117.463 178.838 118.696L170.421 120.92L163.937 114.581L157.478 108.218L159.774 99.5352C161.079 94.7462 162.167 90.8038 162.167 90.7554C162.215 90.707 166.182 89.5951 170.995 88.3141ZM194.695 64.6143L203.426 62.2697L209.789 68.7292L216.127 75.2128L213.904 83.6298C212.671 88.2495 211.486 92.192 211.293 92.3854C211.1 92.5789 207.157 93.7634 202.537 94.9961L194.12 97.2198L187.637 90.8812L181.177 84.5185L183.474 75.8354C184.779 71.0464 185.866 67.104 185.866 67.0556C185.915 67.0072 189.881 65.8954 194.695 64.6143ZM218.394 40.9145L227.126 38.57L233.489 45.0294L239.827 51.513L237.603 59.9301C236.371 64.5498 235.186 68.4922 234.993 68.6856C234.799 68.8791 230.857 70.0636 226.237 71.2963L217.82 73.52L211.337 67.1814L204.877 60.8187L207.173 52.1356C208.479 47.3467 209.566 43.4042 209.566 43.3558C209.615 43.3075 213.581 42.1956 218.394 40.9145ZM242.094 17.2147L250.85 14.8944L257.188 21.3296L263.527 27.8132L261.303 36.2303C260.07 40.85 258.886 44.7924 258.693 44.9859C258.499 45.1793 254.557 46.3638 249.937 47.5965L241.52 49.8202L235.036 43.4816L228.577 37.119L230.873 28.4358C232.178 23.6469 233.242 19.6802 233.29 19.6319C233.339 19.5835 237.305 18.52 242.094 17.2147ZM265.794 -6.48506L274.55 -8.80542L280.888 -2.37018L287.227 4.11345L285.003 12.5305C283.77 17.1502 282.586 21.0926 282.417 21.3103C282.223 21.5037 278.256 22.664 273.637 23.8967L265.22 26.1204L258.736 19.7819L252.277 13.4192L254.573 4.73608C255.878 -0.052912 256.942 -4.01955 256.99 -4.06794C257.038 -4.11629 261.005 -5.1798 265.794 -6.48506ZM289.494 -30.1848L298.225 -32.5294L304.66 -26.0941L311.047 -19.6589L308.679 -10.9516L306.334 -2.22016L297.627 0.100225L288.92 2.42061L282.436 -3.91792L275.976 -10.2806L278.273 -18.9637C279.578 -23.7527 280.641 -27.7193 280.69 -27.7677C280.738 -27.8161 284.681 -28.9038 289.494 -30.1848ZM132.696 167.982L140.992 165.734L147.355 172.194L153.694 178.677L151.446 187.167C150.189 191.859 149.029 195.826 148.859 195.947C148.69 196.116 144.772 197.276 140.128 198.485L131.735 200.733L125.227 194.37L118.744 187.983L121.064 179.324C122.393 174.366 123.602 170.545 123.916 170.424C124.182 170.303 128.149 169.191 132.696 167.982ZM156.396 144.283L164.692 142.035L171.055 148.494L177.393 154.978L175.218 163.201C174.034 167.724 172.922 171.642 172.777 171.933C172.632 172.175 168.665 173.432 163.949 174.713L155.386 176.985L148.903 170.646L142.443 164.283L144.764 155.625C146.093 150.666 147.302 146.845 147.616 146.724C147.882 146.603 151.849 145.491 156.396 144.283ZM180.096 120.583L188.392 118.335L194.755 124.794L201.093 131.278L198.821 139.792C197.564 144.484 196.452 148.402 196.331 148.523C196.21 148.644 192.292 149.756 187.6 151.013L179.086 153.285L172.603 146.946L166.143 140.584L168.463 131.925C169.793 126.966 171.002 123.145 171.316 123.024C171.582 122.903 175.549 121.791 180.096 120.583ZM203.796 96.883L212.092 94.6351L218.454 101.095L224.793 107.578L222.521 116.092C221.264 120.784 220.152 124.702 220.031 124.823C219.91 124.944 215.992 126.056 211.3 127.313L202.786 129.585L196.302 123.247L189.843 116.884L192.163 108.225C193.493 103.267 194.701 99.4452 195.016 99.3243C195.282 99.2034 199.248 98.0915 203.796 96.883ZM227.495 73.1832L235.791 70.9353L242.154 77.3947L248.493 83.8784L246.317 92.1019C245.133 96.6249 244.021 100.543 243.876 100.833C243.731 101.075 239.764 102.332 235.048 103.613L226.486 105.885L220.002 99.5468L213.543 93.1841L215.863 84.5252C217.192 79.5669 218.401 75.7454 218.716 75.6245C218.982 75.5036 222.948 74.3917 227.495 73.1832ZM251.195 49.4834L259.491 47.2355L265.854 53.695L272.192 60.1786L269.92 68.6924C268.664 73.3846 267.552 77.3029 267.431 77.4238C267.31 77.5447 263.392 78.6566 258.699 79.9135L250.186 82.1855L243.702 75.847L237.242 69.4843L239.563 60.8254C240.892 55.8671 242.101 52.0456 242.415 51.9247C242.681 51.8038 246.648 50.6919 251.195 49.4834ZM274.895 25.7836L283.191 23.5357L289.554 29.9952L295.892 36.4788L293.62 45.041C292.339 49.7574 291.082 53.724 290.84 53.8691C290.55 54.0141 286.632 55.126 282.109 56.3104L273.885 58.4857L267.402 52.1472L260.942 45.7845L263.263 37.1256C264.592 32.1673 265.801 28.3458 266.115 28.2249C266.381 28.104 270.348 26.9922 274.895 25.7836ZM298.595 2.08385L306.891 -0.16405L313.278 6.31958L319.64 12.8274L317.393 21.2202C316.184 25.8641 315.024 29.7824 314.854 29.9517C314.734 30.1209 310.767 31.2812 306.075 32.5381L297.585 34.786L291.101 28.4474L284.642 22.0847L286.962 13.4258C288.292 8.46753 289.5 4.64604 289.815 4.52514C290.081 4.40426 294.048 3.29237 298.595 2.08385ZM164.675 176.745L173.188 174.473L179.648 180.932L186.107 187.391L183.835 195.905C182.578 200.597 181.442 204.54 181.346 204.637C181.225 204.758 177.306 205.869 172.614 207.126L164.076 209.374L157.641 202.939L151.181 196.479L153.405 188.062C154.614 183.419 155.725 179.5 155.895 179.331C156.016 179.162 159.982 178.001 164.675 176.745ZM188.374 153.045L196.888 150.773L203.348 157.232L209.807 163.692L207.535 172.205C206.278 176.898 205.142 180.84 205.045 180.937C204.924 181.058 201.006 182.17 196.314 183.427L187.776 185.674L181.341 179.239L174.881 172.78L177.105 164.363C178.313 159.719 179.425 155.801 179.595 155.631C179.715 155.462 183.682 154.302 188.374 153.045ZM212.074 129.345L220.588 127.073L227.047 133.532L233.483 139.968L231.235 148.506C229.978 153.198 228.866 157.116 228.745 157.237C228.624 157.358 224.706 158.47 220.014 159.727L211.476 161.975L205.04 155.539L198.581 149.08L200.805 140.663C202.013 136.019 203.125 132.101 203.294 131.931C203.415 131.762 207.382 130.602 212.074 129.345ZM235.774 105.645L244.288 103.373L250.747 109.833L257.182 116.268L254.935 124.806C253.678 129.498 252.566 133.416 252.445 133.537C252.324 133.658 248.406 134.77 243.713 136.027L235.175 138.275L228.74 131.84L222.281 125.38L224.504 116.963C225.713 112.319 226.825 108.401 226.994 108.232C227.115 108.062 231.082 106.902 235.774 105.645ZM259.474 81.9454L267.987 79.6734L274.447 86.1328L280.882 92.5681L278.634 101.106C277.377 105.798 276.266 109.717 276.145 109.838C276.024 109.958 272.105 111.07 267.413 112.327L258.875 114.575L252.44 108.14L245.981 101.68L248.204 93.2633C249.413 88.6194 250.525 84.7012 250.694 84.5319C250.815 84.3626 254.781 83.2023 259.474 81.9454ZM283.173 58.2456L291.687 55.9736L298.147 62.4331L304.582 68.8683L302.334 77.4063C301.077 82.0985 299.965 86.0168 299.844 86.1377C299.748 86.2345 295.805 87.3705 291.113 88.6274L282.599 90.8995L276.14 84.44L269.68 77.9805L271.904 69.5635C273.113 64.9196 274.224 61.0014 274.394 60.8321C274.515 60.6628 278.481 59.5025 283.173 58.2456ZM306.873 34.5459L315.387 32.2738L321.846 38.7333L328.282 45.1685L326.034 53.7065C324.777 58.3988 323.665 62.317 323.544 62.4379C323.447 62.5347 319.505 63.6708 314.813 64.9276L306.299 67.1997L299.84 60.7402L293.38 54.2808L295.604 45.8637C296.812 41.2199 297.924 37.3016 298.093 37.1323C298.214 36.963 302.181 35.8027 306.873 34.5459Z" fill="url(#paint0_linear_560_24141)"/>
</g>
<rect x="4" y="-115" width="224.872" height="224.872" fill="url(#paint1_radial_560_24141)"/>
</g>
<defs>
<filter id="filter0_d_560_24141" x="0" y="-115" width="232.872" height="232.872" filterUnits="userSpaceOnUse" color-interpolation-filters="sRGB">
<feFlood flood-opacity="0" result="BackgroundImageFix"/>
<feColorMatrix in="SourceAlpha" type="matrix" values="0 0 0 0 0 0 0 0 0 0 0 0 0 0 0 0 0 0 127 0" result="hardAlpha"/>
<feOffset dy="4"/>
<feGaussianBlur stdDeviation="2"/>
<feComposite in2="hardAlpha" operator="out"/>
<feColorMatrix type="matrix" values="0 0 0 0 0 0 0 0 0 0 0 0 0 0 0 0 0 0 0.25 0"/>
<feBlend mode="normal" in2="BackgroundImageFix" result="effect1_dropShadow_560_24141"/>
<feBlend mode="normal" in="SourceGraphic" in2="effect1_dropShadow_560_24141" result="shape"/>
</filter>
<linearGradient id="paint0_linear_560_24141" x1="-82.1942" y1="43.7984" x2="389.42" y2="-11.5632" gradientUnits="userSpaceOnUse">
<stop stop-color="#F971BA" stop-opacity="0"/>
<stop offset="0.354167" stop-color="#F971BA"/>
<stop offset="0.588542" stop-color="#99AFFF"/>
<stop offset="0.854167" stop-color="#99AFFF" stop-opacity="0"/>
</linearGradient>
<radialGradient id="paint1_radial_560_24141" cx="0" cy="0" r="1" gradientUnits="userSpaceOnUse" gradientTransform="translate(116.436 -2.56404) rotate(90) scale(112.436)">
<stop stop-color="#110F1A" stop-opacity="0"/>
<stop offset="1" stop-color="#110F1A"/>
</radialGradient>
</defs>
</svg>
