<svg width="309" height="180" viewBox="0 0 309 180" fill="none" xmlns="http://www.w3.org/2000/svg">
<mask id="mask0_560_24151" style="mask-type:alpha" maskUnits="userSpaceOnUse" x="0" y="0" width="309" height="308">
<rect x="113.281" y="307.181" width="224.872" height="224.872" transform="rotate(-120 113.281 307.181)" fill="#EDECF4"/>
</mask>
<g mask="url(#mask0_560_24151)">
<path d="M211.49 364.69L221.149 362.071L223.739 352.671L226.353 343.311L235.504 340.875L244.654 338.439L247.352 329.032L250.05 319.624L259.284 317.14L268.551 314.664L271.057 305.311L273.554 295.992L282.788 293.507L292.056 291.032L294.679 281.639L297.26 272.272L306.527 269.796L315.761 267.311L318.375 257.952L320.998 248.56L330.298 246.093L339.598 243.626L342.221 234.234L344.844 224.842L354.111 222.366L363.346 219.882L366.002 209.967L368.659 200.053L361.871 193.275L355.116 186.507L357.541 177.061L359.965 167.616L353.144 160.83L346.324 154.043L348.748 144.598L351.164 135.186L344.409 128.417L337.621 121.639L340.07 112.236L342.495 102.791L335.74 96.0218L328.952 89.2441L331.449 79.9246L333.955 70.5721L327.167 63.7944L320.413 57.0256L322.78 47.5296L325.147 38.0336L318.441 31.3486L311.735 24.6636L314.15 15.2514L316.608 5.81506L309.567 -1.20753C305.717 -5.07291 302.403 -8.29858 302.189 -8.42663C302.009 -8.54584 297.661 -7.51482 292.618 -6.13856L283.393 -3.68703L276.662 -10.414C272.975 -14.094 269.833 -17.1675 269.667 -17.2117C269.502 -17.256 265.244 -16.1653 260.211 -14.8221L251.018 -12.3618L244.288 -19.0887C240.6 -22.7688 237.458 -25.8422 237.293 -25.8864C237.128 -25.9307 232.87 -24.8401 227.836 -23.4969L218.644 -21.0365L211.913 -27.7634C208.226 -31.4435 205.084 -34.5169 204.918 -34.5612C204.753 -34.6054 200.495 -33.5148 195.462 -32.1716L186.269 -29.7112L179.539 -36.4381C175.851 -40.1182 172.709 -43.1916 172.544 -43.2359C172.379 -43.2801 168.121 -42.1895 163.087 -40.8463L153.895 -38.3859L147.164 -45.1129C143.477 -48.7929 140.335 -51.8663 140.169 -51.9106C140.004 -51.9548 135.746 -50.8642 130.713 -49.521L121.52 -47.0606L114.757 -53.7964C111.078 -57.5095 107.828 -60.5765 107.612 -60.5635C107.363 -60.5593 102.88 -59.4227 97.6132 -58.0004L88.0043 -55.4391L85.4145 -46.0381L82.8005 -36.6791L73.6501 -34.2429L64.4996 -31.8067L61.8018 -22.3993L59.1041 -12.9918L49.8368 -10.5161L40.6026 -8.03152L38.0966 1.32103L35.5994 10.6405L26.3652 13.1251L17.0979 15.6009L14.4751 24.993L11.8941 34.3609L2.62687 36.8366L-6.60739 39.3212L-9.22135 48.6802L-11.8442 58.0723L-21.1445 60.5392L-30.4448 63.0061L-33.0676 72.3982L-35.6905 81.7903L-44.9577 84.266L-54.192 86.7506L-56.8485 96.665L-59.5051 106.579L-52.7503 113.348L-45.9624 120.126L-48.3871 129.571L-50.8117 139.016L-43.9908 145.803L-37.1699 152.589L-39.5945 162.035L-42.0103 171.447L-35.2555 178.216L-28.4677 184.993L-30.9165 194.397L-33.3411 203.842L-26.5863 210.611L-19.7984 217.388L-22.2956 226.708L-24.8016 236.06L-18.0468 242.829L-11.259 249.607L-13.6264 259.103L-15.9938 268.599L-9.28734 275.284L-2.58091 281.969L-4.99666 291.381L-7.4543 300.817L-0.413436 307.84C3.43703 311.705 6.75072 314.931 6.96426 315.059C7.14476 315.178 11.4928 314.147 16.5353 312.771L25.7607 310.319L32.4913 317.046C36.179 320.726 39.3211 323.8 39.4862 323.844C39.6514 323.888 43.9092 322.798 48.9429 321.455L58.1352 318.994L64.8658 325.721C68.5535 329.401 71.6956 332.475 71.8607 332.519C72.0259 332.563 76.2837 331.472 81.3174 330.129L90.5097 327.669L97.2403 334.396C100.928 338.076 104.07 341.149 104.235 341.194C104.4 341.238 108.658 340.147 113.692 338.804L122.884 336.344L129.615 343.071C133.303 346.751 136.445 349.824 136.61 349.868C136.775 349.913 141.033 348.822 146.066 347.479L155.259 345.018L161.989 351.745C165.677 355.425 168.819 358.499 168.984 358.543C169.149 358.587 173.407 357.497 178.441 356.153L187.633 353.693L194.364 360.42C198.052 364.1 201.26 367.191 201.467 367.211C201.698 367.273 206.222 366.112 211.49 364.69ZM195.457 358.588L189.232 352.35L191.597 343.527L193.961 334.703L202.47 332.414C207.162 331.156 211.111 330.16 211.277 330.204C211.409 330.239 214.364 333.086 217.798 336.521L224.023 342.758L221.659 351.582L219.303 360.372L210.893 362.688C206.267 363.964 202.318 364.96 202.087 364.898C201.88 364.878 198.891 362.023 195.457 358.588ZM163.082 349.913L156.858 343.676L159.222 334.852L161.586 326.028L170.096 323.739C174.788 322.481 178.737 321.485 178.902 321.529C179.034 321.565 181.989 324.411 185.424 327.846L191.648 334.083L189.284 342.907L186.929 351.698L178.519 354.014C173.893 355.289 169.943 356.285 169.712 356.223C169.505 356.203 166.517 353.348 163.082 349.913ZM130.708 341.238L124.492 334.968L126.848 326.177L129.212 317.353L137.721 315.064C142.413 313.807 146.362 312.81 146.528 312.855C146.693 312.899 149.615 315.736 153.049 319.171L159.274 325.409L156.91 334.232L154.554 343.023L146.144 345.339C141.518 346.614 137.569 347.61 137.338 347.548C137.131 347.528 134.142 344.673 130.708 341.238ZM98.3333 332.563L92.1176 326.293L94.4731 317.502L96.8374 308.679L105.347 306.389C110.039 305.132 113.988 304.136 114.153 304.18C114.318 304.224 117.24 307.062 120.675 310.497L126.899 316.734L124.535 325.558L122.18 334.348L113.77 336.664C109.144 337.939 105.194 338.936 104.963 338.874C104.756 338.854 101.768 335.999 98.3333 332.563ZM65.9588 323.889L59.7431 317.619L62.0985 308.828L64.4629 300.004L72.972 297.715C77.6641 296.457 81.6133 295.461 81.7785 295.505C81.9437 295.549 84.8658 298.387 88.3004 301.822L94.5249 308.059L92.1606 316.883L89.8051 325.674L81.3951 327.989C76.7691 329.265 72.8198 330.261 72.5886 330.199C72.3815 330.179 69.3934 327.324 65.9588 323.889ZM33.5842 315.214L27.3686 308.944L29.724 300.153L32.0884 291.329L40.5975 289.04C45.2896 287.782 49.2719 286.795 49.404 286.83C49.5692 286.875 52.4913 289.712 55.9259 293.147L62.1504 299.384L59.7861 308.208L57.4217 317.032L49.0206 319.315C44.3946 320.59 40.4453 321.586 40.2141 321.524C40.007 321.504 37.0189 318.649 33.5842 315.214ZM1.20975 306.539L-5.00595 300.269L-2.65048 291.478L-0.286148 282.655L8.22303 280.365C12.9151 279.108 16.8974 278.12 17.0295 278.156C17.1947 278.2 20.1167 281.037 23.5514 284.473L29.7759 290.71L27.4116 299.533L25.0473 308.357L16.646 310.64C12.0201 311.915 8.07079 312.911 7.83957 312.85C7.63247 312.829 4.64436 309.974 1.20975 306.539ZM219.138 334.825L212.946 328.597L215.311 319.773L217.666 310.983L226.325 308.663L235.017 306.352L241.356 312.69L247.728 319.038L245.364 327.861L242.991 336.718L234.598 338.968C229.972 340.243 225.999 341.198 225.768 341.136C225.561 341.116 222.573 338.261 219.138 334.825ZM186.763 326.151L180.572 319.922L182.936 311.099L185.292 302.308L193.951 299.988L202.643 297.677L208.982 304.015L215.354 310.363L212.989 319.187L210.634 327.977L202.233 330.26C197.607 331.536 193.624 332.523 193.393 332.461C193.186 332.441 190.198 329.586 186.763 326.151ZM154.422 317.485L148.197 311.248L150.553 302.457L152.917 293.633L161.576 291.313L170.268 289.002L176.607 295.341L182.979 301.688L180.615 310.512L178.259 319.303L169.858 321.585C165.232 322.861 161.283 323.857 161.052 323.795C160.845 323.775 157.857 320.92 154.422 317.485ZM122.047 308.81L115.823 302.573L118.178 293.782L120.543 284.958L129.202 282.638L137.894 280.327L144.233 286.666L150.605 293.013L148.24 301.837L145.885 310.628L137.484 312.911C132.858 314.186 128.908 315.182 128.677 315.12C128.47 315.1 125.482 312.245 122.047 308.81ZM89.6399 300.126L83.4484 293.898L85.8127 285.074L88.1681 276.284L96.8272 273.964L105.519 271.653L111.858 277.991L118.23 284.339L115.866 293.163L113.51 301.953L105.109 304.236C100.483 305.511 96.5009 306.499 96.2697 306.437C96.0626 306.417 93.0745 303.562 89.6399 300.126ZM57.2984 291.461L51.0738 285.223L53.4293 276.433L55.7936 267.609L64.4527 265.289L73.1447 262.978L79.4837 269.317L85.8557 275.664L83.4914 284.488L81.1359 293.279L72.7347 295.561C68.1087 296.837 64.1594 297.833 63.9282 297.771C63.7211 297.751 60.733 294.896 57.2984 291.461ZM24.9239 282.786L18.6993 276.549L21.0548 267.758L23.4191 258.934L32.0782 256.614L40.7702 254.303L47.1092 260.642L53.4812 266.989L51.1257 275.78L48.7614 284.604L40.3602 286.887C35.7342 288.162 31.785 289.158 31.5537 289.096C31.3466 289.076 28.3585 286.221 24.9239 282.786ZM-7.54975 274.085L-13.6929 267.94L-11.3197 259.083L-8.95537 250.26L-0.296352 247.94L8.3957 245.628L14.7347 251.967L21.1067 258.315L18.7512 267.105L16.3869 275.929L7.98567 278.212C3.35968 279.487 -0.655629 280.466 -0.919926 280.395C-1.18419 280.324 -4.1812 277.502 -7.54975 274.085ZM241.382 309.686L236.643 304.91L238.89 296.126L241.171 287.35L249.947 284.991L258.714 282.664L265.143 289.063L271.563 295.494L269.208 304.285L266.828 313.033L258.169 315.353L249.51 317.673L247.82 316.052C246.889 315.165 243.976 312.294 241.382 309.686ZM-20.1807 226.743L-17.8252 217.952L-9.04934 215.593L-0.282374 213.267L6.14683 219.665L12.5672 226.096L10.1545 234.836L7.70879 243.567L-0.992118 245.911L-9.69303 248.255L-16.0892 241.866L-22.4942 235.51L-20.1807 226.743ZM210.403 302.413L204.268 296.235L206.516 287.451L208.796 278.675L217.572 276.316L226.339 273.99L232.76 280.421L239.18 286.852L236.776 295.559L234.33 304.29L225.929 306.573C221.312 307.815 217.306 308.761 217.032 308.723C216.768 308.652 213.78 305.797 210.403 302.413ZM178.028 293.738L171.894 287.56L174.141 278.776L176.422 270.001L185.198 267.641L193.965 265.315L200.385 271.746L206.805 278.177L204.402 286.884L201.956 295.615L193.555 297.898C188.938 299.141 184.931 300.086 184.667 300.015C184.402 299.944 181.405 297.122 178.028 293.738ZM145.654 285.063L139.519 278.886L141.767 270.101L144.047 261.326L152.823 258.967L161.59 256.64L168.019 263.038L174.44 269.47L172.027 278.21L169.581 286.941L161.18 289.223C156.563 290.466 152.557 291.411 152.292 291.34C152.028 291.27 149.031 288.448 145.654 285.063ZM113.279 276.388L107.145 270.211L109.392 261.427L111.673 252.651L120.449 250.292L129.216 247.965L135.645 254.364L142.065 260.795L139.653 269.535L137.207 278.266L128.806 280.549C124.188 281.791 120.182 282.737 119.918 282.666C119.653 282.595 116.656 279.773 113.279 276.388ZM80.9046 267.714L74.7703 261.536L77.0178 252.752L79.2983 243.977L88.0742 241.617L96.8411 239.291L103.27 245.689L109.691 252.12L107.278 260.86L104.832 269.591L96.4311 271.874C91.814 273.116 87.8075 274.062 87.5432 273.991C87.2789 273.92 84.282 271.098 80.9046 267.714ZM48.53 259.039L42.3958 252.861L44.6433 244.077L46.915 235.335L55.6908 232.975L64.4666 230.616L70.8958 237.014L77.3162 243.445L74.9035 252.185L72.4578 260.917L64.0566 263.199C59.4395 264.442 55.4242 265.42 55.1599 265.349C54.9045 265.245 51.9075 262.423 48.53 259.039ZM16.1556 250.364L10.0213 244.187L12.2688 235.403L14.5405 226.66L23.3163 224.301L32.0921 221.941L38.5214 228.339L44.9417 234.771L42.529 243.511L40.0833 252.242L31.6821 254.525C27.065 255.767 23.0496 256.745 22.7854 256.675C22.5299 256.571 19.533 253.749 16.1556 250.364ZM266.531 287.451L260.183 281.145L262.53 272.388L264.876 263.63L273.643 261.303L282.377 258.968L288.839 265.375L295.269 271.773L292.922 280.531L290.575 289.289L281.874 291.633C277.107 292.906 273.116 293.926 273.026 293.867C272.936 293.807 269.99 290.928 266.531 287.451ZM234.156 278.776L227.808 272.471L230.155 263.713L232.502 254.955L241.269 252.629L250.003 250.293L256.465 256.701L262.894 263.099L260.547 271.856L258.168 280.605L249.5 282.958C244.733 284.231 240.751 285.219 240.652 285.192C240.561 285.132 237.615 282.253 234.156 278.776ZM201.782 270.101L195.434 263.796L197.781 255.038L200.127 246.28L208.894 243.954L217.628 241.619L224.09 248.026L230.52 254.424L228.173 263.182L225.793 271.931L217.125 274.284C212.358 275.557 208.376 276.544 208.277 276.517C208.187 276.458 205.241 273.578 201.782 270.101ZM169.407 261.427L163.059 255.121L165.406 246.363L167.753 237.606L176.52 235.279L185.295 232.92L191.716 239.351L198.145 245.749L195.798 254.507L193.419 263.256L184.751 265.609C179.984 266.882 176.002 267.869 175.903 267.843C175.812 267.783 172.899 264.913 169.407 261.427ZM137.033 252.752L130.685 246.446L133.032 237.689L135.378 228.931L144.145 226.605L152.921 224.245L159.341 230.676L165.771 237.075L163.424 245.832L161.077 254.59L152.385 256.901C147.609 258.207 143.627 259.194 143.537 259.135C143.438 259.108 140.525 256.238 137.033 252.752ZM104.658 244.077L98.3104 237.772L100.657 229.014L103.004 220.256L111.771 217.93L120.546 215.57L126.967 222.002L133.396 228.4L131.049 237.158L128.703 245.915L120.011 248.226C115.235 249.532 111.253 250.52 111.162 250.46C111.063 250.434 108.15 247.563 104.658 244.077ZM72.2837 235.403L65.9689 229.106L68.2825 220.339L70.6291 211.582L79.3961 209.255L88.1719 206.896L94.5923 213.327L101.022 219.725L98.6749 228.483L96.3283 237.241L87.6362 239.552C82.8604 240.858 78.8781 241.845 78.7879 241.785C78.6887 241.759 75.7425 238.88 72.2837 235.403ZM39.9092 226.728L33.5944 220.431L35.908 211.664L38.2546 202.907L47.0216 200.58L55.8216 198.263L62.2178 204.652L68.647 211.05L66.3004 219.808L63.9538 228.566L55.2529 230.91C50.4859 232.183 46.5036 233.17 46.4045 233.144C46.3142 233.084 43.368 230.205 39.9092 226.728ZM7.53469 218.053L1.21989 211.756L3.53349 202.99L5.88011 194.232L14.6471 191.906L23.4471 189.588L29.8433 195.977L36.2725 202.376L33.9259 211.133L31.5793 219.891L22.8783 222.235C18.1114 223.508 14.1291 224.496 14.03 224.469C13.9397 224.409 10.9935 221.53 7.53469 218.053ZM-24.8729 209.369L-31.1876 203.073L-28.841 194.315L-26.4944 185.557L-17.7274 183.231L-8.92743 180.913L-2.53124 187.303L3.89797 193.701L1.55135 202.459L-0.795267 211.216L-9.49618 213.56C-14.2631 214.833 -18.2454 215.821 -18.3776 215.785C-18.5008 215.717 -21.4471 212.838 -24.8729 209.369ZM290.284 263.814L283.888 257.425L286.244 248.634L288.623 239.885L297.357 237.55L306.115 235.257L312.479 241.637L318.818 247.976L316.561 256.793L314.281 265.569L305.613 267.922C300.813 269.186 296.879 270.257 296.813 270.239C296.747 270.221 293.842 267.318 290.284 263.814ZM257.943 255.148L251.523 248.717L253.869 239.959L256.249 231.211L265.016 228.884L273.741 226.582L280.104 232.963L286.443 239.301L284.195 248.085L281.915 256.861L273.247 259.214C268.438 260.511 264.513 261.549 264.447 261.531C264.405 261.556 261.468 258.643 257.943 255.148ZM225.568 246.474L219.148 240.042L221.495 231.285L223.874 222.536L232.641 220.209L241.366 217.907L247.73 224.288L254.068 230.626L251.821 239.411L249.54 248.186L240.873 250.539C236.064 251.836 232.139 252.874 232.073 252.857C232.031 252.881 229.093 249.969 225.568 246.474ZM193.194 237.799L186.774 231.368L189.12 222.61L191.5 213.861L200.267 211.535L208.992 209.233L215.355 215.613L221.694 221.952L219.446 230.736L217.166 239.511L208.498 241.864C203.689 243.162 199.764 244.2 199.698 244.182C199.656 244.206 196.719 241.294 193.194 237.799ZM160.819 229.124L154.399 222.693L156.812 213.953L159.257 205.222L167.916 202.902L176.617 200.558L182.947 206.929L189.319 213.277L187.072 222.061L184.791 230.837L176.124 233.19C171.315 234.487 167.39 235.525 167.324 235.507C167.282 235.531 164.344 232.619 160.819 229.124ZM128.445 220.45L122.025 214.018L124.437 205.278L126.883 196.547L135.542 194.227L144.243 191.883L150.573 198.255L156.945 204.602L154.697 213.386L152.417 222.162L143.749 224.515C138.94 225.812 135.015 226.85 134.949 226.832C134.907 226.857 131.97 223.944 128.445 220.45ZM96.0704 211.775L89.65 205.344L92.0627 196.604L94.5084 187.872L103.167 185.552L111.868 183.208L118.198 189.58L124.57 195.928L122.323 204.712L120.042 213.487L111.375 215.84C106.566 217.137 102.641 218.175 102.575 218.158C102.533 218.182 99.5952 215.27 96.0704 211.775ZM63.6959 203.1L57.2755 196.669L59.6882 187.929L62.1339 179.198L70.7929 176.878L79.4938 174.534L85.8989 180.89L92.3281 187.288L90.0145 196.055L87.6679 204.812L78.967 207.157C74.1912 208.463 70.2661 209.501 70.2 209.483C70.1581 209.507 67.2207 206.595 63.6959 203.1ZM31.3214 194.425L24.901 187.994L27.3137 179.254L29.7594 170.523L38.4184 168.203L47.1194 165.859L53.5244 172.215L59.9536 178.614L57.64 187.38L55.2934 196.138L46.5925 198.482C41.8167 199.788 37.8916 200.826 37.8255 200.808C37.7836 200.832 34.8462 197.92 31.3214 194.425ZM-1.05313 185.751L-7.47352 179.319L-5.06081 170.579L-2.61509 161.848L6.04392 159.528L14.7448 157.184L21.1499 163.541L27.5791 169.939L25.2655 178.705L22.9189 187.463L14.218 189.807C9.44214 191.113 5.51708 192.151 5.45099 192.134C5.40911 192.158 2.47172 189.245 -1.05313 185.751ZM-33.4937 177.058L-39.8569 170.678L-37.4442 161.938L-34.9896 153.174L-26.3306 150.854L-17.6297 148.509L-11.1916 154.875L-4.79541 161.264L-7.10901 170.031L-9.46448 178.821L-18.1565 181.132C-22.9324 182.438 -26.8905 183.468 -26.9654 183.483C-27.0315 183.465 -29.9777 180.586 -33.4937 177.058ZM313.679 239.798L307.593 233.705L310.006 224.965L312.461 216.2L320.853 213.951C325.479 212.675 329.486 211.73 329.75 211.801C330.014 211.872 333.002 214.727 336.38 218.111L342.514 224.289L340.258 233.106L337.977 241.881L329.318 244.201C324.518 245.465 320.445 246.393 320.208 246.223C319.97 246.053 317.057 243.183 313.679 239.798ZM281.582 231.41L275.219 225.03L277.632 216.29L280.086 207.526L288.479 205.276C293.105 204.001 297.111 203.055 297.375 203.126C297.64 203.197 300.628 206.052 304.005 209.436L310.139 215.614L307.892 224.398L305.611 233.174L296.952 235.493C292.143 236.791 288.185 237.82 288.119 237.802C288.053 237.784 285.107 234.905 281.582 231.41ZM249.208 222.736L242.844 216.355L245.257 207.615L247.712 198.851L256.104 196.601C260.73 195.326 264.737 194.381 265.001 194.451C265.265 194.522 268.253 197.377 271.631 200.762L277.765 206.939L275.517 215.723L273.237 224.499L264.578 226.819C259.769 228.116 255.811 229.145 255.745 229.127C255.679 229.11 252.732 226.23 249.208 222.736ZM216.833 214.061L210.47 207.68L212.883 198.94L215.337 190.176L223.73 187.927C228.356 186.651 232.362 185.706 232.626 185.777C232.891 185.847 235.879 188.702 239.256 192.087L245.39 198.264L243.143 207.049L240.862 215.824L232.203 218.144C227.394 219.441 223.436 220.47 223.37 220.453C223.304 220.435 220.358 217.556 216.833 214.061ZM184.459 205.386L178.095 199.006L180.508 190.266L182.954 181.535L191.355 179.252C195.972 178.01 199.988 177.031 200.252 177.102C200.516 177.173 203.504 180.028 206.882 183.412L213.016 189.59L210.768 198.374L208.488 207.149L199.829 209.469C195.02 210.766 191.062 211.796 190.996 211.778C190.93 211.76 187.983 208.881 184.459 205.386ZM152.084 196.712L145.721 190.331L148.134 181.591L150.579 172.86L158.981 170.577C163.598 169.335 167.613 168.356 167.877 168.427C168.142 168.498 171.13 171.353 174.507 174.737L180.641 180.915L178.394 189.699L176.113 198.475L167.454 200.795C162.645 202.092 158.687 203.121 158.621 203.103C158.555 203.086 155.609 200.206 152.084 196.712ZM119.71 188.037L113.346 181.656L115.759 172.916L118.205 164.185L126.606 161.902C131.223 160.66 135.239 159.682 135.503 159.752C135.767 159.823 138.755 162.678 142.133 166.063L148.267 172.24L146.019 181.025L143.739 189.8L135.08 192.12C130.271 193.417 126.313 194.446 126.247 194.429C126.181 194.411 123.234 191.532 119.71 188.037ZM87.3351 179.362L80.9719 172.982L83.3846 164.242L85.8303 155.51L94.2316 153.228C98.8487 151.985 102.864 151.007 103.128 151.078C103.393 151.149 106.381 154.004 109.758 157.388L115.892 163.566L113.645 172.35L111.364 181.125L102.705 183.445C97.8965 184.742 93.9383 185.772 93.8723 185.754C93.8062 185.736 90.86 182.857 87.3351 179.362ZM54.9606 170.687L48.5974 164.307L51.0101 155.567L53.4558 146.836L61.857 144.553C66.4742 143.311 70.4895 142.332 70.7538 142.403C71.0181 142.474 74.0151 145.296 77.3836 148.713L83.5267 154.858L81.2704 163.675L78.9898 172.45L70.3308 174.77C65.5219 176.068 61.5638 177.097 61.4977 177.079C61.4317 177.061 58.4854 174.182 54.9606 170.687ZM22.5861 162.013L16.2229 155.632L18.6356 146.892L21.0813 138.161L29.4825 135.878C34.0997 134.636 38.115 133.657 38.3793 133.728C38.6436 133.799 41.6405 136.621 45.0091 140.039L51.1522 146.183L48.8959 155L46.6153 163.776L37.9563 166.096C33.1474 167.393 29.1893 168.422 29.1232 168.404C29.0572 168.387 26.1109 165.507 22.5861 162.013ZM-9.78844 153.338L-16.1516 146.957L-13.7389 138.217L-11.2932 129.486L-2.89197 127.204C1.72516 125.961 5.74047 124.983 6.00477 125.054C6.26904 125.124 9.26604 127.946 12.6346 131.364L18.7777 137.508L16.5213 146.326L14.2408 155.101L5.58178 157.421C0.772927 158.718 -3.18519 159.747 -3.25128 159.73C-3.31733 159.712 -6.26358 156.833 -9.78844 153.338ZM-42.4402 144.376L-48.535 138.316L-46.1223 129.576L-43.6677 120.812L-35.2665 118.529C-30.6494 117.287 -26.634 116.308 -26.3698 116.379C-26.1055 116.45 -23.1085 119.272 -19.7399 122.689L-13.5968 128.834L-15.8531 137.651L-18.1337 146.426L-26.8016 148.779C-31.7184 150.083 -35.6741 150.971 -35.936 150.759C-36.1737 150.589 -39.12 147.71 -42.4402 144.376ZM337.653 216.398L331.437 210.128L333.793 201.337L336.148 192.546L344.732 190.242C349.433 188.951 353.497 188.056 353.777 188.202C354.014 188.372 356.936 191.209 360.224 194.534L366.219 200.568L363.855 209.392L361.491 218.216L353.089 220.499C348.463 221.774 344.514 222.77 344.283 222.708C344.076 222.688 341.088 219.833 337.653 216.398ZM305.279 207.723L299.063 201.453L301.418 192.662L303.774 183.872L312.292 181.549C316.984 180.292 320.933 179.295 321.065 179.331C321.23 179.375 324.177 182.254 327.635 185.731L333.974 192.07L331.646 200.762L329.317 209.453L320.799 211.775C316.131 213.075 312.148 214.062 311.908 214.033C311.701 214.013 308.713 211.158 305.279 207.723ZM272.904 199.048L266.688 192.778L269.044 183.988L271.399 175.197L279.917 172.875C284.609 171.617 288.559 170.621 288.691 170.656C288.856 170.7 291.802 173.58 295.261 177.057L301.6 183.395L299.271 192.087L296.942 200.778L288.424 203.101C283.756 204.4 279.774 205.388 279.534 205.359C279.327 205.339 276.339 202.484 272.904 199.048ZM240.53 190.374L234.314 184.104L236.669 175.313L239.025 166.522L247.543 164.2C252.235 162.942 256.184 161.946 256.316 161.981C256.481 162.026 259.428 164.905 262.886 168.382L269.225 174.721L266.897 183.412L264.568 192.104L256.05 194.426C251.382 195.726 247.399 196.713 247.159 196.684C246.952 196.664 243.964 193.809 240.53 190.374ZM208.155 181.699L201.939 175.429L204.295 166.638L206.65 157.847L215.168 155.525C219.86 154.267 223.81 153.271 223.942 153.307C224.107 153.351 227.053 156.23 230.512 159.707L236.851 166.046L234.522 174.737L232.193 183.429L223.675 185.751C219.007 187.051 215.025 188.038 214.785 188.009C214.578 187.989 211.59 185.134 208.155 181.699ZM175.781 173.024L169.565 166.754L171.92 157.963L174.276 149.173L182.794 146.85C187.486 145.593 191.468 144.605 191.6 144.641C191.732 144.676 194.688 147.522 198.122 150.958L204.338 157.228L201.982 166.018L199.627 174.809L191.217 177.125C186.6 178.367 182.642 179.397 182.41 179.335C182.203 179.315 179.215 176.459 175.781 173.024ZM143.406 164.35L137.19 158.079L139.546 149.289L141.901 140.498L150.419 138.176C155.111 136.918 159.094 135.931 159.226 135.966C159.358 136.001 162.313 138.848 165.748 142.283L171.963 148.553L169.608 157.344L167.252 166.134L158.842 168.45C154.225 169.693 150.267 170.722 150.036 170.66C149.829 170.64 146.841 167.785 143.406 164.35ZM111.032 155.675L104.816 149.405L107.171 140.614L109.527 131.823L118.045 129.501C122.737 128.243 126.719 127.256 126.851 127.291C126.983 127.327 129.939 130.173 133.373 133.608L139.589 139.878L137.233 148.669L134.878 157.46L126.468 159.776C121.851 161.018 117.893 162.047 117.661 161.985C117.454 161.965 114.466 159.11 111.032 155.675ZM78.6417 146.925L72.3027 140.587L74.6316 131.895L76.9605 123.203L85.6195 120.883C90.3535 119.602 94.3446 118.581 94.5098 118.625C94.6419 118.661 97.564 121.498 100.999 124.933L107.214 131.204L104.859 139.994L102.503 148.785L94.0933 151.101C89.4762 152.343 85.5181 153.372 85.3199 153.319C85.1128 153.299 82.1005 150.402 78.6417 146.925ZM46.2672 138.25L39.9282 131.912L42.2571 123.22L44.586 114.529L53.245 112.209C57.979 110.927 61.9701 109.906 62.1353 109.951C62.2674 109.986 65.1895 112.824 68.6241 116.259L74.8398 122.529L72.4843 131.32L70.1289 140.11L61.7188 142.426C57.1017 143.668 53.1435 144.698 52.9453 144.645C52.7383 144.624 49.726 141.728 46.2672 138.25ZM13.8927 129.576L7.55369 123.237L9.88259 114.545L12.2115 105.854L20.8705 103.534C25.6045 102.252 29.5956 101.232 29.7608 101.276C29.8929 101.311 32.815 104.149 36.2496 107.584L42.4653 113.854L40.1098 122.645L37.7543 131.436L29.3443 133.751C24.7272 134.994 20.7691 136.023 20.5708 135.97C20.3638 135.95 17.3514 133.053 13.8927 129.576ZM-18.4818 120.901L-24.8208 114.562L-22.4919 105.871L-20.163 97.1792L-11.504 94.8593C-6.77004 93.5774 -2.77888 92.557 -2.61372 92.6013C-2.48157 92.6367 0.440485 95.4741 3.8751 98.9092L10.0908 105.179L7.73532 113.97L5.37985 122.761L-3.03023 125.077C-7.64736 126.319 -11.6055 127.348 -11.8037 127.295C-12.0107 127.275 -15.023 124.378 -18.4818 120.901ZM-50.874 112.292L-57.0656 106.064L-54.7012 97.2403L-52.3369 88.4165L-44.1274 86.1887C-39.6183 84.9529 -35.669 83.9567 -35.3782 83.9283C-35.0632 83.9419 -31.9912 86.7486 -28.5655 90.2168L-22.2837 96.5047L-24.6392 105.295L-26.9947 114.086L-35.4047 116.402C-40.0218 117.644 -44.013 118.665 -44.2443 118.603C-44.4513 118.583 -47.4394 115.728 -50.874 112.292ZM328.894 183.943L322.75 177.799L325.007 168.981L327.287 160.206L335.763 157.908C340.447 156.683 344.495 155.714 344.759 155.785C345.024 155.855 348.054 158.686 351.488 162.121L357.689 168.317L355.276 177.057L352.821 185.821L344.42 188.104C339.803 189.346 335.788 190.324 335.523 190.254C335.259 190.183 332.262 187.361 328.894 183.943ZM296.519 175.269L290.376 169.124L292.632 160.307L294.913 151.531L303.68 149.205L312.456 146.845L318.876 153.277L325.305 159.675L322.893 168.415L320.447 177.146L312.046 179.429C307.429 180.671 303.413 181.65 303.149 181.579C302.885 181.508 299.888 178.686 296.519 175.269ZM264.145 166.594L258.001 160.449L260.258 151.632L262.538 142.857L271.305 140.53L280.081 138.171L286.502 144.602L292.931 151L290.518 159.74L288.072 168.471L279.671 170.754C275.054 171.996 271.039 172.975 270.774 172.904C270.51 172.833 267.513 170.011 264.145 166.594ZM231.77 157.919L225.627 151.775L227.883 142.957L230.164 134.182L238.931 131.855L247.707 129.496L254.127 135.927L260.556 142.326L258.144 151.066L255.698 159.797L247.297 162.079C242.679 163.322 238.664 164.3 238.4 164.229C238.136 164.159 235.139 161.337 231.77 157.919ZM199.396 149.244L193.261 143.067L195.509 134.283L197.789 125.507L206.556 123.181L215.332 120.821L221.752 127.253L228.182 133.651L225.769 142.391L223.323 151.122L214.922 153.405C210.305 154.647 206.29 155.625 206.025 155.555C205.761 155.484 202.773 152.629 199.396 149.244ZM167.021 140.57L160.887 134.392L163.134 125.608L165.415 116.832L174.182 114.506L182.958 112.147L189.378 118.578L195.807 124.976L193.395 133.716L190.949 142.447L182.548 144.73C177.93 145.972 173.915 146.951 173.651 146.88C173.387 146.809 170.398 143.954 167.021 140.57ZM134.647 131.895L128.512 125.717L130.76 116.933L133.04 108.158L141.807 105.831L150.583 103.472L157.003 109.903L163.433 116.301L161.02 125.041L158.574 133.772L150.173 136.055C145.556 137.298 141.541 138.276 141.276 138.205C141.012 138.134 138.024 135.279 134.647 131.895ZM102.272 123.22L96.1377 117.043L98.3853 108.258L100.666 99.483L109.433 97.1566L118.209 94.7971L124.629 101.228L131.058 107.627L128.646 116.367L126.2 125.098L117.799 127.381C113.181 128.623 109.166 129.601 108.902 129.53C108.638 129.46 105.649 126.605 102.272 123.22ZM69.8975 114.545L63.7632 108.368L66.0107 99.5837L68.2913 90.8083L77.0583 88.4819L85.8341 86.1224L92.2545 92.5537L98.6837 98.9519L96.271 107.692L93.8164 116.456L85.4241 118.706C80.7981 119.981 76.7916 120.927 76.5273 120.856C76.263 120.785 73.2749 117.93 69.8975 114.545ZM37.523 105.871L31.3887 99.6932L33.6362 90.909L35.9168 82.1336L44.6838 79.8072L53.4596 77.4477L59.88 83.879L66.3092 90.2772L63.8965 99.0172L61.4419 107.781L53.0496 110.031C48.4236 111.306 44.4171 112.252 44.1528 112.181C43.8886 112.11 40.9004 109.255 37.523 105.871ZM5.14851 97.196L-0.985786 91.0185L1.26173 82.2343L3.54228 73.4589L12.3093 71.1324L21.0851 68.773L27.5055 75.2043L33.9347 81.6025L31.522 90.3425L29.0674 99.1067L20.6751 101.356C16.0491 102.632 12.0426 103.577 11.7783 103.506C11.514 103.436 8.52592 100.58 5.14851 97.196ZM-27.226 88.5213L-33.3603 82.3438L-31.1039 73.5265L-28.8234 64.7511L-20.3561 62.4861C-15.664 61.2284 -11.6245 60.2918 -11.3603 60.3627C-11.096 60.4335 -8.0748 63.2974 -4.63133 66.6995L1.56017 72.9278L-0.852503 81.6678L-3.30708 90.432L-11.6994 92.6816C-16.3254 93.957 -20.3319 94.9024 -20.5962 94.8316C-20.8605 94.7608 -23.8486 91.9057 -27.226 88.5213ZM320.264 151.665L313.949 145.368L316.263 136.602L318.618 127.811L327.385 125.485L336.194 123.134L342.623 129.532L349.011 135.955L346.598 144.695L344.143 153.459L335.55 155.796C330.808 157.111 326.891 158.116 326.801 158.057C326.669 158.021 323.756 155.151 320.264 151.665ZM287.889 142.99L281.575 136.694L283.888 127.927L286.235 119.169L295.011 116.81L303.778 114.483L310.207 120.882L316.627 127.313L314.214 136.053L311.769 144.784L303.176 147.122C298.433 148.437 294.517 149.442 294.427 149.382C294.327 149.356 291.381 146.476 287.889 142.99ZM255.515 134.316L249.2 128.019L251.514 119.252L253.86 110.495L262.636 108.135L271.403 105.809L277.832 112.207L284.253 118.638L281.84 127.378L279.394 136.109L270.801 138.447C266.059 139.762 262.142 140.767 262.052 140.707C261.953 140.681 259.007 137.802 255.515 134.316ZM223.14 125.641L216.826 119.344L219.139 110.578L221.486 101.82L230.262 99.4605L239.029 97.134L245.458 103.532L251.878 109.964L249.465 118.704L247.02 127.435L238.427 129.772C233.684 131.087 229.768 132.092 229.678 132.033C229.578 132.006 226.632 129.127 223.14 125.641ZM190.979 117.094L184.583 110.705L186.831 101.921L189.111 93.1452L197.887 90.7857L206.654 88.4593L213.083 94.8575L219.504 101.289L217.091 110.029L214.645 118.76L206.052 121.098C201.309 122.412 197.45 123.468 197.409 123.492C197.367 123.517 194.495 120.622 190.979 117.094ZM158.605 108.42L152.209 102.03L154.456 93.2459L156.737 84.4705L165.513 82.111L174.28 79.7846L180.709 86.1828L187.129 92.6141L184.716 101.354L182.271 110.085L173.678 112.423C168.935 113.738 165.076 114.794 165.034 114.818C164.992 114.842 162.121 111.947 158.605 108.42ZM126.23 99.7448L119.834 93.3554L122.082 84.5712L124.362 75.7958L133.138 73.4363L141.905 71.1099L148.334 77.5081L154.755 83.9394L152.342 92.6794L149.896 101.411L141.303 103.748C136.56 105.063 132.701 106.119 132.66 106.143C132.618 106.167 129.746 103.273 126.23 99.7448ZM93.8558 91.0701L87.4597 84.6807L89.7072 75.8965L91.9877 67.121L100.764 64.7616L109.531 62.4352L115.96 68.8334L122.38 75.2647L120.034 84.0224L117.654 92.7712L108.995 95.0911C104.219 96.3971 100.327 97.4441 100.285 97.4683C100.243 97.4925 97.3719 94.5979 93.8558 91.0701ZM61.4813 82.3954L55.0852 76.006L57.3327 67.2217L59.6132 58.4463L68.389 56.0869L77.156 53.7604L83.5853 60.1587L90.0056 66.5899L87.659 75.3476L85.2794 84.0965L76.6203 86.4164C71.8445 87.7224 67.9525 88.7694 67.9106 88.7936C67.8687 88.8178 64.9973 85.9232 61.4813 82.3954ZM29.1068 73.7206L22.7107 67.3313L24.9582 58.547L27.2387 49.7716L36.0146 47.4121L44.7815 45.0857L51.2107 51.4839L57.6311 57.9152L55.2845 66.6729L52.9048 75.4218L44.2458 77.7417C39.47 79.0477 35.5779 80.0947 35.5361 80.1189C35.4942 80.143 32.6229 77.2485 29.1068 73.7206ZM-3.26767 65.0459L-9.66386 58.6565L-7.40749 49.8392L-5.12693 41.0638L3.61584 38.6955L12.3828 36.3691L18.8362 42.8092L25.2654 49.2075L22.91 57.9982L20.5303 66.7471L11.8713 69.067C7.09549 70.373 3.20344 71.4199 3.16154 71.4441C3.11967 71.4683 0.248335 68.5737 -3.26767 65.0459ZM311.57 119.228L305.256 112.931L307.602 104.174L309.949 95.416L318.749 93.0984L327.525 90.739L333.945 97.1703L340.341 103.56L337.995 112.317L335.648 121.075L326.947 123.419C322.18 124.692 318.189 125.713 318.066 125.644C317.975 125.584 315.029 122.705 311.57 119.228ZM279.196 110.553L272.881 104.257L275.228 95.499L277.574 86.7413L286.341 84.4149L295.108 82.0885L301.538 88.4867L307.934 94.8761L305.62 103.643L303.274 112.4L294.573 114.744C289.806 116.017 285.815 117.038 285.691 116.969C285.601 116.91 282.655 114.03 279.196 110.553ZM246.821 101.879L240.507 95.582L242.853 86.8243L245.2 78.0666L253.967 75.7402L262.734 73.4137L269.163 79.812L275.559 86.2013L273.246 94.9679L270.899 103.726L262.198 106.07C257.431 107.343 253.44 108.363 253.317 108.295C253.226 108.235 250.28 105.356 246.821 101.879ZM214.447 93.204L208.132 86.9072L210.479 78.1495L212.825 69.3919L221.592 67.0654L230.35 64.7721L236.789 71.1372L243.185 77.5266L240.871 86.2932L238.525 95.0509L229.824 97.395C225.057 98.668 221.066 99.6883 220.942 99.6199C220.852 99.5603 217.906 96.681 214.447 93.204ZM182.072 84.5292L175.758 78.2325L178.104 69.4748L180.451 60.7171L189.218 58.3907L197.976 56.0973L204.414 62.4625L210.843 68.8607L208.497 77.6184L206.15 86.3761L197.449 88.7203C192.682 89.9932 188.691 91.0136 188.568 90.9452C188.477 90.8856 185.531 88.0063 182.072 84.5292ZM149.698 75.8545L143.383 69.5578L145.73 60.8001L148.076 52.0424L156.843 49.716L165.601 47.4226L172.04 53.7878L178.469 60.186L176.122 68.9437L173.776 77.7014L165.075 80.0455C160.308 81.3185 156.316 82.3389 156.193 82.2705C156.103 82.2109 153.157 79.3316 149.698 75.8545ZM117.323 67.1798L111.009 60.8831L113.355 52.1254L115.735 43.3765L124.469 41.0413L133.227 38.7479L139.665 45.1131L146.094 51.5113L143.748 60.269L141.401 69.0267L132.7 71.3708C127.933 72.6438 123.942 73.6642 123.819 73.5957C123.728 73.5361 120.782 70.6569 117.323 67.1798ZM84.9489 58.5051L78.6341 52.2084L80.9807 43.4507L83.3604 34.7018L92.0943 32.3665L100.861 30.0401L107.291 36.4384L113.72 42.8366L111.373 51.5943L109.027 60.352L100.326 62.6961C95.5586 63.9691 91.5675 64.9895 91.4772 64.9299C91.3539 64.8614 88.4407 61.991 84.9489 58.5051ZM52.5744 49.8304L46.2596 43.5336L48.6062 34.7759L50.9859 26.0271L59.7198 23.6918L68.4868 21.3654L74.916 27.7636L81.3452 34.1619L78.9986 42.9196L76.652 51.6773L67.9511 54.0214C63.1841 55.2944 59.193 56.3147 59.1027 56.2551C58.9794 56.1867 56.0662 53.3163 52.5744 49.8304ZM20.1999 41.1556L13.8851 34.8589L16.2317 26.1012L18.5783 17.3435L27.3123 15.0083L36.0881 12.6488L42.5085 19.0801L48.9707 25.4871L46.6241 34.2448L44.2775 43.0025L35.5766 45.3467C30.8096 46.6196 26.8185 47.64 26.7282 47.5804C26.6049 47.512 23.6917 44.6416 20.1999 41.1556ZM302.95 86.9169L296.586 80.5364L298.999 71.7964L301.445 63.0652L310.146 60.7211L318.847 58.377L325.243 64.7664L331.648 71.1227L329.334 79.8892L326.979 88.68L318.287 90.9911C313.511 92.2971 309.544 93.3594 309.478 93.3417C309.412 93.324 306.466 90.4447 302.95 86.9169ZM270.575 78.2422L264.212 71.8616L266.625 63.1217L269.07 54.3905L277.472 52.1078C282.089 50.8655 286.104 49.887 286.368 49.9578C286.624 50.0617 289.621 52.8837 292.998 56.2681L299.132 62.4456L296.885 71.2299L294.613 79.9722L285.945 82.3252C281.136 83.6224 277.169 84.6847 277.103 84.667C277.037 84.6493 274.091 81.77 270.575 78.2422ZM238.201 69.5675L231.837 63.1869L234.25 54.4469L236.696 45.7158L245.097 43.4331C249.714 42.1908 253.729 41.2123 253.994 41.2831C254.249 41.3869 257.246 44.209 260.624 47.5934L266.758 53.7709L264.51 62.5552L262.239 71.2975L253.571 73.6505C248.762 74.9476 244.795 76.0099 244.729 75.9922C244.663 75.9745 241.717 73.0953 238.201 69.5675ZM205.859 60.9016L199.463 54.5122L201.876 45.7722L204.321 37.0411L212.723 34.7583C217.34 33.516 221.346 32.5706 221.61 32.6414C221.875 32.7122 224.872 35.5342 228.249 38.9187L234.383 45.0962L232.136 53.8804L229.855 62.6558L221.187 65.0088C216.387 66.2729 212.429 67.3022 212.387 67.3264C212.321 67.3087 209.375 64.4294 205.859 60.9016ZM173.485 52.2269L167.088 45.8375L169.501 37.0975L171.947 28.3664L180.348 26.0836C184.965 24.8413 188.972 23.8959 189.236 23.9667C189.5 24.0375 192.497 26.8595 195.875 30.2439L202.009 36.4215L199.761 45.2057L197.481 53.9811L188.813 56.3341C184.013 57.5982 180.055 58.6274 180.013 58.6516C179.947 58.6339 177.001 55.7547 173.485 52.2269ZM141.11 43.5521L134.714 37.1628L137.127 28.4228L139.572 19.6916L147.974 17.4089C152.591 16.1666 156.597 15.2212 156.861 15.292C157.126 15.3628 160.123 18.1848 163.5 21.5692L169.634 27.7467L167.387 36.531L165.106 45.3064L156.438 47.6594C151.638 48.9235 147.68 49.9527 147.638 49.9769C147.572 49.9592 144.626 47.08 141.11 43.5521ZM108.736 34.8774L102.348 28.455L104.752 19.7481L107.198 11.0169L115.599 8.73417C120.216 7.49188 124.223 6.54644 124.487 6.61725C124.751 6.68806 127.748 9.51008 131.126 12.8945L137.26 19.072L135.012 27.8563L132.732 36.6317L124.064 38.9846C119.264 40.2488 115.297 41.3111 115.231 41.2934C115.165 41.2756 112.26 38.3722 108.736 34.8774ZM76.3611 26.2027L69.9738 19.7803L72.3776 11.0733L74.8233 2.34219L83.2245 0.0594497C87.8416 -1.18284 91.8481 -2.12829 92.1213 -2.09052C92.3855 -2.01971 95.3737 0.835362 98.7511 4.21977L104.885 10.3973L102.638 19.1815L100.357 27.9569L91.6894 30.3099C86.8894 31.574 82.9224 32.6363 82.8564 32.6186C82.7903 32.6009 79.886 29.6975 76.3611 26.2027ZM43.9866 17.528L37.5904 11.1386L39.9459 2.34786L42.3255 -6.40099L51.0506 -8.7032L59.7845 -11.0385L66.1477 -4.65796L72.5108 1.72257L70.2633 10.5068L67.9828 19.2822L59.3149 21.6352C54.5149 22.8993 50.5479 23.9616 50.4819 23.9439C50.4158 23.9262 47.5026 21.0558 43.9866 17.528ZM294.003 54.2351L287.908 48.1744L290.321 39.4344L292.767 30.7033L301.243 28.4052C305.935 27.1475 309.95 26.169 310.14 26.2552C310.371 26.3172 313.335 29.1303 316.703 32.5478L322.847 38.6923L320.59 47.5096L318.301 56.318L309.642 58.6379C304.683 59.9658 300.769 60.8298 300.507 60.6179C300.27 60.448 297.323 57.5687 294.003 54.2351ZM261.629 45.5603L255.534 39.4997L257.947 30.7597L260.392 22.0285L268.602 19.8007C273.111 18.5649 277.06 17.5687 277.384 17.5492C277.666 17.5539 280.738 20.3606 284.206 23.8046L290.454 30.0836L288.207 38.8679L285.926 47.6433L277.267 49.9632C272.309 51.2911 268.395 52.1551 268.133 51.9432C267.895 51.7733 264.949 48.894 261.629 45.5603ZM229.254 36.8856L223.159 30.8249L225.572 22.085L228.018 13.3538L236.527 11.0646C241.219 9.80694 245.168 8.81075 245.333 8.855C245.499 8.89926 248.421 11.7366 251.855 15.1718L258.08 21.4089L255.832 30.1932L253.552 38.9686L244.893 41.2885C239.934 42.6164 236.02 43.4804 235.758 43.2685C235.521 43.0985 232.574 40.2193 229.254 36.8856ZM196.88 28.2109L190.785 22.1502L193.198 13.4102L195.643 4.67909L204.152 2.38985C208.844 1.13222 212.794 0.136024 212.959 0.180284C213.124 0.224543 216.046 3.0619 219.481 6.49707L225.705 12.7342L223.458 21.5184L221.177 30.2938L212.518 32.6138C207.56 33.9416 203.646 34.8056 203.384 34.5938C203.146 34.4238 200.2 31.5446 196.88 28.2109ZM164.505 19.5362L158.41 13.4755L160.823 4.73551L163.269 -3.99563L171.478 -6.22349C175.987 -7.45929 179.937 -8.45548 180.261 -8.47496C180.543 -8.47024 183.614 -5.66357 187.082 -2.21955L193.331 4.05947L191.083 12.8437L188.803 21.6191L180.144 23.939C175.185 25.2669 171.271 26.1309 171.009 25.9191C170.772 25.7491 167.825 22.8698 164.505 19.5362ZM132.131 10.8615L126.036 4.80079L128.449 -3.93921L130.894 -12.6703L139.403 -14.9596C144.095 -16.2172 148.045 -17.2134 148.21 -17.1692C148.375 -17.1249 151.297 -14.2875 154.732 -10.8524L160.956 -4.61525L158.709 4.169L156.428 12.9444L147.769 15.2643C142.81 16.5922 138.897 17.4562 138.635 17.2443C138.397 17.0744 135.451 14.1951 132.131 10.8615ZM99.7561 2.18673L93.6613 -3.87394L96.074 -12.6139L98.5197 -21.3451L107.071 -23.6585C111.796 -24.9073 115.86 -25.802 116.106 -25.6651C116.377 -25.4863 119.299 -22.6489 122.586 -19.3241L128.582 -13.29L126.334 -4.50572L124.054 4.26968L115.395 6.5896C110.436 7.91746 106.522 8.78147 106.26 8.56961C106.023 8.39965 103.076 5.5204 99.7561 2.18673ZM67.3816 -6.48799L61.2868 -12.5487L63.7084 -21.3217L66.1629 -30.0859L74.5553 -32.3356C79.1813 -33.6109 83.1547 -34.5652 83.386 -34.5033C83.593 -34.4832 86.5812 -31.6281 90.0158 -28.193L96.2073 -21.9647L93.9598 -13.1804L91.6792 -4.40504L83.0202 -2.08511C78.0615 -0.757253 74.1477 0.106754 73.8857 -0.105112C73.648 -0.275063 70.7018 -3.15432 67.3816 -6.48799ZM285.602 22.1599L279.378 15.9228L281.742 7.09897L284.106 -1.72482L292.616 -4.01406C297.308 -5.2717 301.29 -6.25904 301.422 -6.22363C301.587 -6.17938 304.509 -3.34201 307.944 0.0931531L314.16 6.36332L311.804 15.1541L309.44 23.9779L301.039 26.2606C296.413 27.5359 292.463 28.5321 292.232 28.4702C292.025 28.4501 289.037 25.595 285.602 22.1599ZM253.228 13.4852L247.003 7.24804L249.368 -1.57575L251.732 -10.3995L260.241 -12.6888C264.933 -13.9464 268.915 -14.9338 269.048 -14.8984C269.213 -14.8541 272.135 -12.0167 275.569 -8.58157L281.785 -2.3114L279.43 6.47934L277.065 15.3031L268.664 17.5859C264.038 18.8612 260.089 19.8574 259.858 19.7955C259.651 19.7754 256.662 16.9203 253.228 13.4852ZM220.853 4.81044L214.629 -1.42668L216.993 -10.2505L219.349 -19.0412L227.867 -21.3635C232.559 -22.6211 236.508 -23.6173 236.673 -23.5731C236.838 -23.5288 239.76 -20.6915 243.195 -17.2563L249.411 -10.9861L247.055 -2.19538L244.691 6.62841L236.29 8.91116C231.664 10.1865 227.714 11.1827 227.483 11.1207C227.276 11.1007 224.288 8.2456 220.853 4.81044ZM188.479 -3.86428L182.254 -10.1014L184.619 -18.9252L186.974 -27.7159L195.492 -30.0382C200.184 -31.2959 204.133 -32.2921 204.299 -32.2478C204.464 -32.2035 207.386 -29.3662 210.82 -25.931L217.036 -19.6608L214.681 -10.8701L212.316 -2.04631L203.915 0.23644C199.289 1.51178 195.34 2.50797 195.109 2.44601C194.902 2.42595 191.913 -0.429117 188.479 -3.86428ZM156.104 -12.539L149.88 -18.7761L152.244 -27.5999L154.6 -36.3907L163.118 -38.7129C167.81 -39.9706 171.759 -40.9668 171.924 -40.9225C172.089 -40.8783 175.011 -38.0409 178.446 -34.6057L184.662 -28.3356L182.306 -19.5448L179.942 -10.721L171.541 -8.43828C166.915 -7.16294 162.965 -6.16675 162.734 -6.22871C162.527 -6.24877 159.539 -9.10384 156.104 -12.539ZM123.73 -21.2137L117.505 -27.4508L119.87 -36.2746L122.225 -45.0654L130.743 -47.3877C135.435 -48.6453 139.384 -49.6415 139.55 -49.5972C139.682 -49.5618 142.637 -46.7156 146.071 -43.2805L152.296 -37.0433L149.932 -28.2195L147.567 -19.3958L139.166 -17.113C134.54 -15.8377 130.591 -14.8415 130.36 -14.9034C130.153 -14.9235 127.164 -17.7786 123.73 -21.2137ZM91.3553 -29.8884L85.1307 -36.1256L87.495 -44.9494L89.8505 -53.7401L98.3685 -56.0624C103.061 -57.32 107.01 -58.3162 107.175 -58.272C107.307 -58.2366 110.262 -55.3903 113.697 -51.9552L119.921 -45.7181L117.557 -36.8943L115.193 -28.0705L106.792 -25.7877C102.166 -24.5124 98.2163 -23.5162 97.9851 -23.5782C97.778 -23.5982 94.7899 -26.4533 91.3553 -29.8884Z" fill="url(#paint0_linear_560_24151)"/>
</g>
<rect x="113.281" y="307.181" width="224.872" height="224.872" transform="rotate(-120 113.281 307.181)" fill="url(#paint1_radial_560_24151)"/>
<defs>
<linearGradient id="paint0_linear_560_24151" x1="293.902" y1="302.428" x2="10.1503" y2="-78.3214" gradientUnits="userSpaceOnUse">
<stop stop-color="#F971BA" stop-opacity="0"/>
<stop offset="0.354167" stop-color="#F971BA"/>
<stop offset="0.588542" stop-color="#99AFFF"/>
<stop offset="0.854167" stop-color="#99AFFF" stop-opacity="0"/>
</linearGradient>
<radialGradient id="paint1_radial_560_24151" cx="0" cy="0" r="1" gradientUnits="userSpaceOnUse" gradientTransform="translate(225.717 419.617) rotate(90) scale(112.436)">
<stop stop-color="#110F1A" stop-opacity="0"/>
<stop offset="1" stop-color="#110F1A"/>
</radialGradient>
</defs>
</svg>
