<svg width="137" height="81" viewBox="0 0 137 81" fill="none" xmlns="http://www.w3.org/2000/svg">
<mask id="mask0_560_24146" style="mask-type:alpha" maskUnits="userSpaceOnUse" x="0" y="-56" width="137" height="137">
<rect y="-56" width="137" height="137" fill="#EDECF4"/>
</mask>
<g mask="url(#mask0_560_24146)">
<path d="M-142.909 -43.7039L-145.471 -34.0291L-138.624 -27.0858L-131.826 -20.1426L-134.292 -10.9999L-136.757 -1.85729L-129.959 5.18276L-123.161 12.2228L-125.626 21.4622L-128.116 30.7257L-121.269 37.5723L-114.447 44.3946L-116.912 53.634L-119.402 62.8976L-112.579 69.8651L-105.757 76.7842L-108.247 86.0477L-110.712 95.2871L-103.914 102.23L-97.0915 109.198L-99.6053 118.486L-102.119 127.773L-95.2967 134.741L-88.4743 141.708L-90.9639 150.972L-93.4293 160.211L-86.1715 167.469L-78.9137 174.727L-69.6501 172.237L-60.4107 169.772L-53.4433 176.594L-46.4758 183.417L-37.188 180.903L-27.9003 178.389L-20.9328 185.212L-13.9895 192.01L-4.75012 189.544L4.51344 187.055L11.4325 193.877L18.4 200.699L27.6394 198.234L36.903 195.744L43.7253 202.567L50.5719 209.413L59.8354 206.924L69.0748 204.458L76.1149 211.257L83.1549 218.055L92.2975 215.589L101.44 213.124L108.383 219.922L115.327 226.769L124.929 224.182C130.202 222.78 134.652 221.524 134.87 221.403C135.063 221.306 136.344 217.025 137.674 211.97L140.163 202.755L149.354 200.289C154.385 198.936 158.618 197.751 158.739 197.63C158.86 197.509 160.044 193.277 161.398 188.246L163.863 179.055L173.054 176.589C178.085 175.236 182.318 174.051 182.439 173.931C182.559 173.81 183.744 169.577 185.097 164.546L187.563 155.355L196.754 152.89C201.785 151.536 206.017 150.352 206.138 150.231C206.259 150.11 207.444 145.877 208.797 140.846L211.263 131.655L220.454 129.19C225.485 127.836 229.717 126.652 229.838 126.531C229.959 126.41 231.143 122.177 232.497 117.147L234.962 107.956L244.153 105.49C249.184 104.137 253.417 102.952 253.538 102.831C253.659 102.71 254.843 98.4776 256.197 93.4468L258.662 84.2557L267.877 81.7661C272.932 80.4368 277.214 79.1556 277.31 78.9621C277.431 78.7445 278.688 74.2941 280.09 69.0214L282.676 59.4192L275.83 52.4759L269.031 45.5326L271.497 36.39L273.962 27.2473L267.164 20.2073L260.366 13.1672L262.856 3.90369L265.321 -5.3357L258.474 -12.1822L251.652 -19.0046L254.117 -28.244L256.607 -37.5076L249.785 -44.475L242.962 -51.3941L245.452 -60.6577L247.917 -69.8971L241.119 -76.8404L234.297 -83.8079L236.81 -93.0956L239.324 -102.383L232.502 -109.351L225.68 -116.318L228.169 -125.582L230.635 -134.821L223.377 -142.079L216.119 -149.337L206.879 -146.871L197.616 -144.382L190.648 -151.204L183.681 -158.027L174.393 -155.513L165.105 -152.999L158.138 -159.821L151.195 -166.62L141.955 -164.154L132.692 -161.665L125.773 -168.487L118.805 -175.309L109.566 -172.844L100.302 -170.354L93.4799 -177.177L86.6333 -184.023L77.3939 -181.558L68.1304 -179.068L61.0903 -185.867L54.0503 -192.665L44.9077 -190.199L35.765 -187.734L28.8218 -194.532L21.8784 -201.379L12.2763 -198.792C7.00352 -197.39 2.55315 -196.134 2.33548 -196.013C2.142 -195.916 0.860849 -191.635 -0.468516 -186.58L-2.95813 -177.365L-12.1491 -174.899C-17.18 -173.546 -21.4127 -172.361 -21.5336 -172.24C-21.6545 -172.119 -22.8389 -167.887 -24.1925 -162.856L-26.6579 -153.665L-35.8489 -151.199C-40.8798 -149.846 -45.1125 -148.661 -45.2334 -148.541C-45.3543 -148.42 -46.5387 -144.187 -47.8923 -139.156L-50.3577 -129.965L-59.5487 -127.5C-64.5796 -126.146 -68.8122 -124.962 -68.9332 -124.841C-69.0541 -124.72 -70.2385 -120.487 -71.5921 -115.456L-74.0575 -106.265L-83.2485 -103.8C-88.2793 -102.446 -92.512 -101.262 -92.6329 -101.141C-92.7539 -101.02 -93.9383 -96.7874 -95.2918 -91.7565L-97.7573 -82.5655L-106.948 -80.1001C-111.979 -78.7465 -116.212 -77.5621 -116.333 -77.4412C-116.454 -77.3203 -117.638 -73.0876 -118.992 -68.0567L-121.457 -58.8657L-130.648 -56.4003C-135.679 -55.0467 -139.96 -53.8139 -140.081 -53.6446C-140.25 -53.4754 -141.507 -48.9766 -142.909 -43.7039ZM-129.608 -54.5376L-121.094 -56.8096L-114.634 -50.3502L-108.175 -43.8907L-110.447 -35.3769C-111.704 -30.6847 -112.816 -26.7664 -112.937 -26.6455C-113.033 -26.5488 -116.976 -25.4127 -121.668 -24.1558L-130.182 -21.8838L-136.641 -28.3432L-143.077 -34.7785L-140.877 -43.2197C-139.669 -47.8636 -138.557 -51.7819 -138.387 -51.9512C-138.266 -52.1205 -134.3 -53.2807 -129.608 -54.5376ZM-105.908 -78.2374L-97.394 -80.5094L-90.9346 -74.05L-84.4751 -67.5905L-86.7472 -59.0767C-88.004 -54.3845 -89.1159 -50.4662 -89.2368 -50.3453C-89.3336 -50.2486 -93.276 -49.1125 -97.9683 -47.8556L-106.482 -45.5836L-112.942 -52.043L-119.377 -58.4783L-117.177 -66.9195C-115.969 -71.5634 -114.857 -75.4817 -114.688 -75.6509C-114.567 -75.8202 -110.6 -76.9805 -105.908 -78.2374ZM-82.208 -101.937L-73.6701 -104.185L-67.2348 -97.7497L-60.7753 -91.2903L-63.0474 -82.7765C-64.3043 -78.0843 -65.4161 -74.166 -65.5371 -74.0451C-65.658 -73.9242 -69.5762 -72.8123 -74.2685 -71.5554L-82.7823 -69.2833L-89.2417 -75.7428L-95.677 -82.1781L-93.4775 -90.6193C-92.269 -95.2632 -91.1571 -99.1814 -90.9878 -99.3507C-90.8669 -99.52 -86.9003 -100.68 -82.208 -101.937ZM-58.5083 -125.637L-49.9703 -127.885L-43.535 -121.45L-37.0756 -114.99L-39.3476 -106.476C-40.6045 -101.784 -41.7164 -97.8658 -41.8373 -97.7449C-41.9582 -97.6239 -45.8765 -96.5121 -50.5687 -95.2552L-59.0825 -92.9831L-65.542 -99.4426L-71.9772 -105.878L-69.7777 -114.319C-68.5692 -118.963 -67.4573 -122.881 -67.288 -123.051C-67.1671 -123.22 -63.2005 -124.38 -58.5083 -125.637ZM-34.8085 -149.337L-26.2705 -151.585L-19.8352 -145.149L-13.3758 -138.69L-15.6478 -130.176C-16.9047 -125.484 -18.0166 -121.566 -18.1375 -121.445C-18.2584 -121.324 -22.1767 -120.212 -26.8689 -118.955L-35.3827 -116.683L-41.8422 -123.142L-48.2774 -129.578L-46.0779 -138.019C-44.8694 -142.663 -43.7575 -146.581 -43.5883 -146.75C-43.4673 -146.92 -39.5007 -148.08 -34.8085 -149.337ZM-11.1087 -173.037L-2.57072 -175.284L3.86454 -168.849L10.324 -162.39L8.05198 -153.876C6.7951 -149.184 5.65902 -145.241 5.56228 -145.144C5.44138 -145.024 1.52309 -143.912 -3.16915 -142.655L-11.6829 -140.383L-18.1424 -146.842L-24.6018 -153.302L-22.3782 -161.719C-21.1696 -166.363 -20.0578 -170.281 -19.8885 -170.45C-19.7676 -170.619 -15.8009 -171.78 -11.1087 -173.037ZM12.5911 -196.736L21.1291 -198.984L27.5643 -192.549L34.0238 -186.089L31.7518 -177.576C30.4949 -172.883 29.3588 -168.941 29.2621 -168.844C29.1411 -168.723 25.2229 -167.611 20.5306 -166.355L12.0169 -164.082L5.55739 -170.542L-0.902063 -177.001L1.32163 -185.418C2.53013 -190.062 3.64204 -193.981 3.81131 -194.15C3.93224 -194.319 7.89886 -195.479 12.5911 -196.736ZM-120.869 -22.1481L-112.38 -24.3959L-105.92 -17.9365L-99.4852 -11.5012L-101.806 -2.84228L-104.15 5.8408L-112.809 8.16119L-121.492 10.5058L-127.952 4.0463L-134.435 -2.43736L-132.187 -10.8302C-130.979 -15.4741 -129.819 -19.3923 -129.649 -19.5616C-129.528 -19.7309 -125.562 -20.8912 -120.869 -22.1481ZM-97.1697 -45.8478L-88.6801 -48.0957L-82.2206 -41.6362L-75.7854 -35.201L-78.1058 -26.5421L-80.4503 -17.859L-89.1092 -15.5386L-97.7923 -13.194L-104.252 -19.6535L-110.687 -26.0888L-108.463 -34.5058C-107.255 -39.1497 -106.119 -43.0921 -105.949 -43.2614C-105.829 -43.4307 -101.862 -44.591 -97.1697 -45.8478ZM-73.4941 -69.5234L-64.9803 -71.7955L-58.545 -65.3602L-52.0856 -58.9008L-54.406 -50.2418L-56.7506 -41.5588L-65.4094 -39.2384L-74.0925 -36.8938L-80.552 -43.3533L-86.9873 -49.7885L-84.7636 -58.2056C-83.5551 -62.8495 -82.4431 -66.7677 -82.2739 -66.937C-82.153 -67.1063 -78.1864 -68.2666 -73.4941 -69.5234ZM-49.7943 -93.2232L-41.2805 -95.4953L-34.8453 -89.06L-28.3858 -82.6005L-30.7062 -73.9416L-33.0508 -65.2585L-41.7097 -62.9382L-50.3928 -60.5936L-56.8522 -67.0531L-63.2875 -73.4883L-61.0638 -81.9053C-59.8553 -86.5492 -58.7434 -90.4675 -58.5741 -90.6368C-58.4532 -90.8061 -54.4866 -91.9663 -49.7943 -93.2232ZM-26.0704 -116.947L-17.5808 -119.195L-11.1213 -112.736L-4.68603 -106.3L-7.0064 -97.6414L-9.35098 -88.9583L-18.0099 -86.6379L-26.693 -84.2934L-33.1524 -90.7528L-39.5877 -97.1881L-37.364 -105.605C-36.1555 -110.249 -35.0194 -114.191 -34.8501 -114.361C-34.7292 -114.53 -30.7626 -115.69 -26.0704 -116.947ZM-2.39476 -140.623L6.11903 -142.895L12.5543 -136.46L19.0138 -130L16.6934 -121.341L14.3488 -112.658L5.6899 -110.338L-2.99318 -107.993L-9.45263 -114.453L-15.8879 -120.888L-13.6642 -129.305C-12.4557 -133.949 -11.3438 -137.867 -11.1745 -138.036C-11.0536 -138.206 -7.087 -139.366 -2.39476 -140.623ZM21.305 -164.323L29.8188 -166.595L36.2541 -160.159L42.7136 -153.7L40.3932 -145.041L38.0486 -136.358L29.3897 -134.038L20.7066 -131.693L14.2713 -138.128L7.81187 -144.588L10.0356 -153.005C11.2441 -157.649 12.356 -161.567 12.5253 -161.736C12.6462 -161.905 16.6128 -163.066 21.305 -164.323ZM45.0774 -188.095L53.4702 -190.343L59.9539 -183.859L66.4133 -177.4L64.093 -168.741L61.7484 -160.058L53.0895 -157.737L44.4064 -155.393L37.9711 -161.828L31.5116 -168.287L33.7354 -176.704C34.9439 -181.348 36.1041 -185.315 36.2976 -185.508C36.4911 -185.702 40.4335 -186.886 45.0774 -188.095ZM-110.221 9.68553L-103.714 7.96943L-97.2307 14.308L-90.7712 20.6707L-93.1158 29.4505L-95.4846 38.2061L-104.24 40.5749L-113.02 42.9195L-119.455 36.4842L-125.842 30.0489L-123.522 21.39L-121.201 12.7311L-118.952 12.0785C-117.719 11.7159 -113.776 10.6282 -110.221 9.68553ZM92.3918 -175.363L98.827 -168.928L96.4825 -160.148L94.1137 -151.392L85.3581 -149.023L76.5782 -146.679L70.2155 -153.138L63.877 -159.622L66.1974 -168.329L68.5178 -177.036L77.2492 -179.381L85.9565 -181.75L92.3918 -175.363ZM-88.4316 -13.5067L-80.0145 -15.7303L-73.5309 -9.39183L-67.0715 -3.02911L-69.416 5.75071L-71.7848 14.5063L-80.5646 16.8509L-89.3445 19.1955L-95.683 12.7602L-102.021 6.27659L-99.7978 -2.14044C-98.5651 -6.76013 -97.3806 -10.7026 -97.2114 -10.9202C-97.0179 -11.1137 -93.0513 -12.274 -88.4316 -13.5067ZM-64.7318 -37.2064L-56.3148 -39.4301L-49.8311 -33.0916L-43.3717 -26.7289L-45.7162 -17.9491L-48.085 -9.19344L-56.8648 -6.84887L-65.6447 -4.50433L-71.9832 -10.9396L-78.3217 -17.4232L-76.098 -25.8402C-74.8653 -30.4599 -73.6809 -34.4024 -73.4874 -34.5958C-73.2939 -34.7893 -69.3515 -35.9737 -64.7318 -37.2064ZM-41.032 -60.9062L-32.615 -63.1299L-26.1313 -56.7914L-19.6719 -50.4287L-22.0165 -41.6489L-24.3852 -32.8932L-33.1408 -30.5245L-41.9207 -28.1799L-48.2834 -34.6394L-54.6219 -41.123L-52.3982 -49.54C-51.1655 -54.1597 -49.9811 -58.1021 -49.7876 -58.2956C-49.5941 -58.4891 -45.6517 -59.6735 -41.032 -60.9062ZM-17.3322 -84.606L-8.91519 -86.8297L-2.43156 -80.4912L4.02789 -74.1285L1.68333 -65.3486L-0.68543 -56.593L-9.44107 -54.2242L-18.2209 -51.8797L-24.5836 -58.3391L-30.9221 -64.8228L-28.6984 -73.2398C-27.4657 -77.8595 -26.2813 -81.8019 -26.0878 -81.9954C-25.8944 -82.1889 -21.9519 -83.3733 -17.3322 -84.606ZM6.36755 -108.306L14.7846 -110.529L21.2682 -104.191L27.7277 -97.8282L25.3831 -89.0484L23.0144 -80.2928L14.2587 -77.924L5.47889 -75.5795L-0.883829 -82.0389L-7.22235 -88.5225L-4.99867 -96.9396C-3.76596 -101.559 -2.58151 -105.502 -2.38804 -105.695C-2.19457 -105.889 1.74786 -107.073 6.36755 -108.306ZM30.0673 -132.006L38.4844 -134.229L44.968 -127.891L51.4033 -121.552L49.0587 -112.772L46.7141 -103.993L37.9585 -101.624L29.1787 -99.2792L22.816 -105.739L16.4774 -112.222L18.7011 -120.639C19.9338 -125.259 21.0941 -129.226 21.2876 -129.419C21.5052 -129.588 25.4477 -130.773 30.0673 -132.006ZM53.7671 -155.705L62.1842 -157.929L68.6678 -151.591L75.103 -145.252L72.7585 -136.472L70.4139 -127.692L61.6583 -125.324L52.8785 -122.979L46.5157 -129.438L40.1772 -135.922L42.4009 -144.339C43.6336 -148.959 44.7939 -152.925 44.9873 -153.119C45.205 -153.288 49.1474 -154.473 53.7671 -155.705ZM-103.538 42.5826L-94.9037 40.238L-88.4926 46.6491L-82.0815 53.0602L-84.4503 61.8158L-86.7948 70.5473L-95.5747 72.9402L-104.33 75.309L-110.741 68.8979L-117.152 62.4868L-114.832 53.7795C-113.551 49.0147 -112.439 45.0481 -112.342 44.9997C-112.246 44.9514 -108.279 43.8395 -103.538 42.5826ZM-79.8386 18.8828L-71.2039 16.5383L-64.7928 22.9493L-58.3817 29.3604L-60.7505 38.116L-63.0951 46.8475L-71.8749 49.2404L-80.6305 51.6092L-87.0416 45.1981L-93.4285 38.7628L-91.1323 30.0798C-89.8512 25.315 -88.7151 21.3725 -88.6426 21.3C-88.5458 21.2516 -84.5792 20.1397 -79.8386 18.8828ZM-56.1388 -4.81694L-47.5041 -7.16153L-41.093 -0.750443L-34.6819 5.66063L-37.0507 14.4163L-39.3953 23.1477L-48.1751 25.5407L-56.9307 27.9094L-63.3418 21.4983L-69.7287 15.0631L-67.4325 6.37998C-66.1514 1.61518 -65.0154 -2.32727 -64.9428 -2.39983C-64.8461 -2.44819 -60.8794 -3.56006 -56.1388 -4.81694ZM-32.439 -28.5167L-23.8043 -30.8613L-17.3932 -24.4502L-10.9822 -18.0392L-13.3509 -9.28352L-15.6955 -0.503674L-24.4753 1.84086L-33.2309 4.20962L-39.642 -2.20145L-46.0289 -8.63672L-43.7327 -17.3198C-42.4516 -22.0846 -41.3156 -26.0271 -41.243 -26.0996C-41.1463 -26.148 -37.2038 -27.2357 -32.439 -28.5167ZM-8.73923 -52.2165L-0.104529 -54.5611L6.30656 -48.15L12.7176 -41.7389L10.3489 -32.9833L8.00433 -24.2035L-0.775512 -21.8589L-9.53115 -19.4902L-15.9422 -25.9012L-22.3533 -32.3123L-20.0087 -40.9954C-18.7519 -45.7844 -17.6158 -49.7268 -17.519 -49.7752C-17.4465 -49.8478 -13.504 -50.9355 -8.73923 -52.2165ZM14.9605 -75.9163L23.5953 -78.2609L30.0063 -71.8498L36.4174 -65.4387L34.0487 -56.6831L31.7041 -47.9032L22.9243 -45.5587L14.1686 -43.1899L7.75757 -49.601L1.34648 -56.0121L3.69106 -64.6952C4.94792 -69.4842 6.084 -73.4266 6.18074 -73.475C6.25329 -73.5475 10.1957 -74.6352 14.9605 -75.9163ZM38.6603 -99.6161L47.2709 -101.936L53.7061 -95.5496L60.1172 -89.1385L57.7484 -80.3829L55.4039 -71.603L46.624 -69.2585L37.8684 -66.8897L31.4574 -73.3008L25.0463 -79.7119L27.3908 -88.395C28.6477 -93.1839 29.7838 -97.1264 29.8805 -97.1748C29.9531 -97.2473 33.9197 -98.3592 38.6603 -99.6161ZM62.3601 -123.316L70.9706 -125.636L77.4059 -119.249L83.817 -112.838L81.4482 -104.083L79.0553 -95.3029L70.3238 -92.9583L61.5682 -90.5895L55.1571 -97.0006L48.746 -103.412L51.0664 -112.119C52.3475 -116.884 53.4836 -120.826 53.5561 -120.899C53.6529 -120.947 57.6195 -122.059 62.3601 -123.316ZM86.0599 -147.016L94.6704 -149.336L101.106 -142.949L107.517 -136.538L105.148 -127.782L102.755 -119.003L94.0236 -116.658L85.268 -114.289L78.8569 -120.7L72.4458 -127.111L74.7662 -135.819C76.0473 -140.584 77.1833 -144.526 77.2559 -144.599C77.3526 -144.647 81.3193 -145.759 86.0599 -147.016ZM109.784 -170.74L118.394 -173.06L124.805 -166.649L131.217 -160.238L128.848 -151.482L126.455 -142.702L117.723 -140.358L108.968 -137.989L102.557 -144.4L96.1456 -150.811L98.466 -159.519C99.7471 -164.283 100.883 -168.226 100.98 -168.323C101.101 -168.395 105.067 -169.507 109.784 -170.74ZM-94.9454 74.9722L-86.2139 72.6276L-79.7786 79.0629L-73.3918 85.4981L-75.7363 94.2296L-78.1293 102.961L-86.8365 105.281L-95.4954 107.602L-102.003 101.239L-108.463 94.8764L-106.166 86.1933C-104.861 81.4043 -103.822 77.4618 -103.774 77.4134C-103.725 77.3651 -99.7585 76.3016 -94.9454 74.9722ZM-71.2698 51.2966L-62.4899 48.952L-56.0789 55.3631L-49.692 61.7983L-52.0607 70.554L-54.4295 79.2612L-63.1367 81.5816L-71.7956 83.902L-78.2793 77.5635L-84.7387 71.2008L-82.4425 62.5177C-81.1615 57.7045 -80.0979 53.7862 -80.0496 53.7379C-80.0496 53.6895 -76.0588 52.6018 -71.2698 51.2966ZM-47.57 27.5968L-38.7902 25.2522L-32.3791 31.6633L-25.9922 38.0985L-28.3609 46.8542L-30.7297 55.5614L-39.437 57.8818L-48.0959 60.2022L-54.5795 53.8637L-61.0389 47.501L-58.7427 38.8179C-57.4617 34.0047 -56.3982 30.0865 -56.3498 30.0381C-56.3498 29.9897 -52.359 28.902 -47.57 27.5968ZM-23.8702 3.89699L-15.0904 1.55242L-8.67929 7.9635L-2.2924 14.3988L-4.66115 23.1544L-7.0299 31.8617L-15.7372 34.182L-24.3961 36.5024L-30.8797 30.1639L-37.3391 23.8012L-35.0429 15.1181C-33.7619 10.3049 -32.6984 6.38667 -32.65 6.3383C-32.65 6.28991 -28.6592 5.20221 -23.8702 3.89699ZM-0.170399 -19.8028L8.60942 -22.1474L14.9721 -15.6879L21.3106 -9.20429L18.9903 -0.545397L16.6699 8.16187L7.98679 10.4581L-0.696295 12.8026L-7.17991 6.46413L-13.6394 0.101417L-11.3432 -8.58167C-10.0621 -13.3949 -8.99858 -17.3131 -8.95021 -17.3615C-8.95025 -17.4099 -4.95941 -18.4976 -0.170399 -19.8028ZM23.5294 -43.5026L32.3092 -45.8471L38.6719 -39.3877L45.0104 -32.9041L42.6901 -24.2452L40.3697 -15.5379L31.6866 -13.2417L23.0035 -10.8971L16.5199 -17.2357L10.0604 -23.5984L12.3566 -32.2815C13.6377 -37.0946 14.7012 -41.0129 14.7496 -41.0613C14.7495 -41.1097 18.7404 -42.1974 23.5294 -43.5026ZM47.2292 -67.2024L56.009 -69.5469L62.3717 -63.0875L68.7102 -56.6039L66.3898 -47.945L64.0694 -39.2377L55.3864 -36.9415L46.7033 -34.5969L40.2197 -40.9354L33.7602 -47.2981L36.0564 -55.9812C37.3374 -60.7944 38.401 -64.7127 38.4494 -64.7611C38.4493 -64.8094 42.4402 -65.8971 47.2292 -67.2024ZM70.9289 -90.9021L79.7088 -93.2467L86.0715 -86.7873L92.41 -80.3036L90.0896 -71.6447L87.7692 -62.9375L79.062 -60.5687L70.3063 -58.2L63.8711 -64.5869L57.46 -70.9979L59.7804 -79.7052C61.0372 -84.4942 62.1008 -88.4125 62.1491 -88.4608C62.1491 -88.5092 66.1399 -89.5969 70.9289 -90.9021ZM94.6287 -114.602L103.409 -116.946L109.771 -110.487L116.11 -104.003L113.789 -95.3445L111.469 -86.6373L102.762 -84.2685L94.0061 -81.8997L87.5709 -88.2866L81.1598 -94.6977L83.4802 -103.405C84.737 -108.194 85.8006 -112.112 85.8489 -112.161C85.8489 -112.209 89.8397 -113.297 94.6287 -114.602ZM118.329 -138.302L127.108 -140.646L133.471 -134.187L139.81 -127.703L137.489 -119.044L135.169 -110.337L126.462 -107.968L117.706 -105.6L111.271 -111.986L104.86 -118.398L107.18 -127.105C108.437 -131.894 109.5 -135.812 109.549 -135.86C109.549 -135.909 113.54 -136.996 118.329 -138.302ZM142.077 -162.05L150.784 -164.37L157.147 -157.911L163.509 -151.403L161.189 -142.744L158.869 -134.037L150.137 -131.644L141.406 -129.299L134.97 -135.686L128.535 -142.121L130.88 -150.805C132.137 -155.594 133.224 -159.536 133.248 -159.609C133.297 -159.657 137.263 -160.769 142.077 -162.05ZM-85.8444 107.241L-77.5242 105.017L-71.1615 111.477L-64.7987 117.984L-67.0466 126.377C-68.2551 131.021 -69.4396 134.964 -69.6331 135.157C-69.8265 135.35 -73.7931 136.511 -78.4128 137.743L-86.8299 139.967L-93.3377 133.604L-99.7971 127.242L-97.4767 118.583C-96.1715 113.794 -94.9387 109.803 -94.6726 109.682C-94.4066 109.561 -90.4641 108.474 -85.8444 107.241ZM-62.5317 83.6377L-53.8244 81.3173L-47.4617 87.7768L-41.099 94.2846L-43.3468 102.677C-44.5553 107.321 -45.7398 111.264 -45.9333 111.457C-46.1267 111.651 -50.0934 112.811 -54.713 114.044L-63.1301 116.267L-69.6137 109.929L-76.0732 103.566L-73.7528 94.9072C-72.4717 90.094 -71.384 86.1516 -71.3356 86.1032C-71.2873 86.0548 -67.3206 84.943 -62.5317 83.6377ZM-38.8319 59.9379L-30.1246 57.6175L-23.7619 64.077L-17.3992 70.5848L-19.647 78.9777C-20.8556 83.6215 -22.04 87.564 -22.2335 87.7574C-22.427 87.9509 -26.3936 89.1112 -31.0133 90.3439L-39.4303 92.5676L-45.9139 86.229L-52.3734 79.8663L-50.053 71.2074C-48.7719 66.3942 -47.6842 62.4518 -47.6359 62.4034C-47.5875 62.3551 -43.6209 61.2432 -38.8319 59.9379ZM-15.1321 36.2381L-6.42481 33.9177L-0.0621039 40.3772L6.30062 46.885L4.05274 55.2779C2.84422 59.9217 1.65976 63.8642 1.4663 64.0576C1.27283 64.2511 -2.69379 65.4114 -7.31348 66.6441L-15.7305 68.8678L-22.2141 62.5292L-28.6736 56.1665L-26.3532 47.5076C-25.0721 42.6945 -23.9844 38.752 -23.9361 38.7036C-23.8877 38.6553 -19.9211 37.5434 -15.1321 36.2381ZM8.5677 12.5384L17.275 10.218L23.6377 16.6774L29.9762 23.161L27.7525 31.5781C26.5198 36.1978 25.3595 40.1644 25.1661 40.3579C24.9726 40.5513 21.006 41.7116 16.3863 42.9443L7.96927 45.168L1.48564 38.8295L-4.97381 32.4667L-2.65342 23.8079C-1.37236 18.9947 -0.284661 15.0522 -0.236291 15.0039C-0.187921 14.9555 3.77871 13.8436 8.5677 12.5384ZM32.2675 -11.1614L40.9748 -13.4818L47.3375 -7.02237L53.676 -0.53874L51.4523 7.8783C50.2196 12.498 49.0593 16.4646 48.8659 16.6581C48.6724 16.8515 44.7058 18.0118 40.0861 19.2445L31.6691 21.4682L25.1854 15.1297L18.726 8.76696L21.0464 0.108074C22.3274 -4.70511 23.4151 -8.64756 23.4635 -8.69593C23.5119 -8.7443 27.4785 -9.85618 32.2675 -11.1614ZM55.9673 -34.8612L64.6745 -37.1816L71.0372 -30.7222L77.3758 -24.2385L75.1521 -15.8215C73.9194 -11.2018 72.7591 -7.23517 72.5656 -7.0417C72.3722 -6.84824 68.4056 -5.68797 63.7859 -4.45527L55.3688 -2.23158L48.8852 -8.57011L42.4258 -14.9328L44.7461 -23.5917C46.0272 -28.4049 47.1149 -32.3473 47.1633 -32.3957C47.2116 -32.4441 51.1783 -33.556 55.9673 -34.8612ZM79.667 -58.561L88.3743 -60.8814L94.737 -54.4219L101.076 -47.9383L98.8519 -39.5213C97.6192 -34.9016 96.4589 -30.935 96.2654 -30.7415C96.072 -30.548 92.1054 -29.3878 87.4857 -28.155L79.0686 -25.9314L72.585 -32.2699L66.1255 -38.6326L68.4459 -47.2915C69.727 -52.1047 70.8147 -56.0471 70.8631 -56.0955C70.9114 -56.1439 74.8781 -57.2557 79.667 -58.561ZM103.367 -82.2608L112.074 -84.5812L118.437 -78.1217L124.775 -71.6381L122.552 -63.2211C121.319 -58.6014 120.159 -54.6347 119.965 -54.4413C119.772 -54.2478 115.829 -53.0633 111.185 -51.8548L102.793 -49.607L96.2848 -55.9697L89.8253 -62.3324L92.1457 -70.9913C93.4268 -75.8045 94.5145 -79.7469 94.5629 -79.7953C94.6112 -79.8437 98.5779 -80.9555 103.367 -82.2608ZM127.067 -105.961L135.774 -108.281L142.137 -101.822L148.475 -95.3379L146.251 -86.9208C145.019 -82.3012 143.858 -78.3345 143.665 -78.1411C143.472 -77.9476 139.529 -76.7631 134.885 -75.5546L126.492 -73.3067L119.985 -79.6695L113.525 -86.0322L115.845 -94.6911C117.127 -99.5043 118.214 -103.447 118.263 -103.495C118.311 -103.543 122.278 -104.655 127.067 -105.961ZM150.766 -129.66L159.474 -131.981L165.836 -125.521L172.175 -119.038L169.951 -110.621C168.719 -106.001 167.558 -102.034 167.365 -101.841C167.171 -101.647 163.229 -100.463 158.585 -99.2544L150.192 -97.0065L143.684 -103.369L137.225 -109.732L139.545 -118.391C140.826 -123.204 141.914 -127.146 141.962 -127.195C142.011 -127.243 145.977 -128.355 150.766 -129.66ZM174.853 -153.457L183.149 -155.705L189.512 -149.245L195.875 -142.737L193.651 -134.32C192.418 -129.701 191.258 -125.734 191.065 -125.541C190.871 -125.347 186.929 -124.163 182.285 -122.954L173.892 -120.706L167.384 -127.069L160.925 -133.432L163.221 -142.115C164.55 -147.025 165.759 -150.895 166.073 -151.016C166.339 -151.136 170.306 -152.248 174.853 -153.457ZM-77.5659 139.703L-69.0279 137.455L-62.5926 143.89L-56.1574 150.326L-58.4536 158.912C-59.6863 163.628 -60.9433 167.595 -61.2093 167.764C-61.4754 167.885 -65.3936 168.997 -69.9166 170.181L-78.1401 172.357L-84.5996 165.897L-91.059 159.438L-88.8354 151.021C-87.6268 146.377 -86.5149 142.459 -86.3457 142.289C-86.2248 142.12 -82.2581 140.96 -77.5659 139.703ZM-53.8661 116.003L-45.3281 113.755L-38.8929 120.19L-32.4576 126.626L-34.7054 135.164C-35.9623 139.856 -37.0742 143.774 -37.1709 143.871C-37.2919 143.992 -41.2585 145.104 -45.9991 146.361L-54.658 148.681L-61.0207 142.318L-67.3834 135.956L-65.1356 127.418C-63.9271 122.725 -62.791 118.783 -62.6459 118.589C-62.525 118.42 -58.5583 117.26 -53.8661 116.003ZM-30.1663 92.3033L-21.6283 90.0554L-15.1931 96.4907L-8.7578 102.926L-11.0057 111.464C-12.2625 116.156 -13.3744 120.074 -13.4712 120.171C-13.5921 120.292 -17.5587 121.404 -22.2993 122.661L-30.9582 124.981L-37.3209 118.619L-43.6836 112.256L-41.4358 103.718C-40.2273 99.0256 -39.0912 95.0832 -38.9461 94.8897C-38.8252 94.7204 -34.8586 93.5601 -30.1663 92.3033ZM-6.46653 68.6035L2.07144 66.3556L8.50671 72.7909L14.942 79.2262L12.6941 87.7641C11.4373 92.4564 10.3254 96.3747 10.2286 96.4714C10.1077 96.5923 6.14107 97.7042 1.40044 98.9611L-7.25846 101.281L-13.6211 94.9188L-19.9838 88.5561L-17.736 80.0181C-16.5275 75.3258 -15.3914 71.3834 -15.2463 71.1899C-15.1254 71.0206 -11.1588 69.8604 -6.46653 68.6035ZM17.2333 44.9037L25.7712 42.6559L32.2065 49.0911L38.6418 55.5264L36.3939 64.0644C35.137 68.7566 34.0251 72.6749 33.9284 72.7716C33.8075 72.8925 29.8409 74.0044 25.1002 75.2613L16.4413 77.5817L10.0786 71.219L3.71595 64.8563L5.9638 56.3183C7.1723 51.6261 8.30839 47.6836 8.45349 47.4901C8.57438 47.3208 12.541 46.1606 17.2333 44.9037ZM40.933 21.2039L49.471 18.9561L55.9063 25.3913L62.3415 31.8266L60.0937 40.3646C58.8368 45.0568 57.7007 48.9993 57.604 49.096C57.5073 49.1927 53.5648 50.3288 48.8726 51.5857L40.3346 53.8335L33.8993 47.3983L27.4641 40.963L29.6636 32.5218C30.8963 27.9021 31.984 23.9596 32.1533 23.7904C32.2742 23.6211 36.2408 22.4608 40.933 21.2039ZM64.6328 -2.49586L73.1708 -4.74371L79.6061 1.69156L86.0413 8.12682L83.7935 16.6648C82.5366 21.357 81.4005 25.2995 81.3038 25.3962C81.2071 25.493 77.2646 26.629 72.5724 27.8859L64.0344 30.1338L57.5991 23.6985L51.1639 17.2632L53.3633 8.822C54.5961 4.2023 55.6838 0.259862 55.8531 0.0905737C55.9739 -0.0787258 59.9406 -1.23898 64.6328 -2.49586ZM88.3326 -26.1956L96.8706 -28.4435L103.306 -22.0082L109.741 -15.573L107.493 -7.03499C106.236 -2.34275 105.1 1.5997 105.004 1.69643C104.907 1.79317 100.964 2.92924 96.2721 4.18613L87.7342 6.43398L81.2989 -0.00128893L74.8636 -6.43656L77.0631 -14.8778C78.2958 -19.4975 79.3835 -23.4399 79.5528 -23.6092C79.6737 -23.7785 83.6404 -24.9388 88.3326 -26.1956ZM112.105 -49.8712L120.764 -52.1916L127.127 -45.8289L133.489 -39.4663L131.169 -30.8073C129.912 -26.0667 128.8 -22.1001 128.679 -21.9792C128.582 -21.8824 124.664 -20.7705 119.972 -19.5137L111.434 -17.2658L104.999 -23.7011L98.5634 -30.1364L100.763 -38.5776C101.996 -43.1973 103.083 -47.1397 103.228 -47.2848C103.349 -47.4541 107.364 -48.6144 112.105 -49.8712ZM135.805 -73.571L144.464 -75.8914L150.826 -69.5287L157.189 -63.166L154.869 -54.5071C153.612 -49.7665 152.5 -45.7999 152.379 -45.679C152.282 -45.5822 148.364 -44.4703 143.672 -43.2134L135.134 -40.9656L128.698 -47.4009L122.263 -53.8361L124.463 -62.2774C125.695 -66.897 126.783 -70.8395 126.928 -70.9846C127.049 -71.1539 131.064 -72.3141 135.805 -73.571ZM159.505 -97.2708L168.163 -99.5912L174.526 -93.2285L180.889 -86.8658L178.568 -78.2069C177.312 -73.4663 176.2 -69.4997 176.079 -69.3787C175.982 -69.282 172.064 -68.1701 167.371 -66.9132L158.834 -64.6654L152.398 -71.1007L145.963 -77.5359L148.162 -85.9771C149.395 -90.5968 150.483 -94.5393 150.628 -94.6844C150.749 -94.8537 154.764 -96.0139 159.505 -97.2708ZM183.204 -120.971L191.863 -123.291L198.226 -116.928L204.589 -110.566L202.268 -101.907C201.011 -97.1661 199.899 -93.1994 199.779 -93.0785C199.682 -92.9818 195.764 -91.8699 191.071 -90.613L182.533 -88.3652L176.098 -94.8004L169.663 -101.236L171.862 -109.677C173.095 -114.297 174.183 -118.239 174.328 -118.384C174.449 -118.553 178.464 -119.714 183.204 -120.971ZM206.856 -144.719L215.345 -146.967L221.805 -140.507L228.264 -134.048L226.089 -125.824C224.905 -121.301 223.793 -117.383 223.672 -117.117C223.502 -116.851 219.536 -115.594 214.819 -114.361L206.233 -112.065L199.798 -118.5L193.363 -124.935L195.562 -133.377C196.795 -137.996 197.907 -141.963 198.076 -142.132C198.197 -142.302 202.163 -143.462 206.856 -144.719ZM-45.0796 148.344L-36.6868 146.096L-30.1789 152.459L-23.7195 158.822L-25.9674 167.311C-27.2484 171.979 -28.4329 175.97 -28.6264 176.164C-28.8198 176.357 -32.7864 177.566 -37.4787 178.823L-45.9441 181.095L-52.3068 174.635L-58.6695 168.127L-56.4458 159.71C-55.2131 155.091 -54.0528 151.124 -53.8594 150.931C-53.6659 150.737 -49.7235 149.553 -45.0796 148.344ZM-21.3798 124.644L-12.987 122.397L-6.47915 128.759L-0.019717 135.122L-2.38846 143.878L-4.73303 152.657L-13.5128 155.002L-22.2685 157.371L-28.6312 150.911L-34.9697 144.428L-32.746 136.011C-31.5133 131.391 -30.3531 127.424 -30.1596 127.231C-29.9661 127.037 -26.0237 125.853 -21.3798 124.644ZM2.31996 100.945L10.7128 98.6968L17.2206 105.06L23.6801 111.422L21.3113 120.178L18.9668 128.958L10.1869 131.302L1.43129 133.671L-4.93141 127.212L-11.2699 120.728L-9.04626 112.311C-7.81355 107.691 -6.65328 103.725 -6.45981 103.531C-6.26635 103.338 -2.32392 102.153 2.31996 100.945ZM26.0198 77.2449L34.4126 74.997L40.9204 81.3597L47.3799 87.7224L45.0111 96.4781L42.6665 105.258L33.8867 107.602L25.1311 109.971L18.7684 103.512L12.4298 97.0281L14.6535 88.6111C15.8862 83.9914 17.0465 80.0248 17.24 79.8313C17.4334 79.6379 21.3759 78.4534 26.0198 77.2449ZM49.7195 53.5451L58.1366 51.3214L64.6202 57.6599L71.0796 64.0226L68.7109 72.7783L66.3663 81.5581L57.5865 83.9027L48.8309 86.2714L42.4682 79.812L36.1296 73.3283L38.3533 64.9113C39.586 60.2916 40.7463 56.325 40.9398 56.1315C41.1332 55.9381 45.0998 54.7778 49.7195 53.5451ZM73.4193 29.8453L81.8364 27.6216L88.32 33.9602L94.7794 40.3229L92.4107 49.0785L90.0661 57.8583L81.2863 60.2029L72.5306 62.5716L66.1679 56.1122L59.8294 49.6286L62.0531 41.2115C63.2858 36.5918 64.4461 32.6252 64.6395 32.4318C64.833 32.2383 68.7996 31.078 73.4193 29.8453ZM97.1191 6.14552L105.536 3.92184L112.02 10.2604L118.479 16.6231L116.11 25.3787L113.766 34.1585L104.986 36.5031L96.2304 38.8718L89.8677 32.4124L83.5292 25.9288L85.7529 17.5117C86.9856 12.8921 88.1459 8.92544 88.3393 8.73197C88.5328 8.5385 92.4994 7.37823 97.1191 6.14552ZM120.819 -17.5543L129.236 -19.7779L135.72 -13.4394L142.179 -7.0767L139.81 1.67893L137.466 10.4587L128.686 12.8033L119.93 15.1721L113.568 8.71262L107.229 2.229L109.453 -6.18804C110.685 -10.8077 111.846 -14.7743 112.039 -14.9678C112.233 -15.1613 116.199 -16.3216 120.819 -17.5543ZM144.519 -41.254L152.936 -43.4777L159.419 -37.1392L165.879 -30.7765L163.51 -22.0209L161.165 -13.241L152.386 -10.8965L143.63 -8.52771L137.267 -14.9872L130.905 -21.495L133.152 -29.8878C134.361 -34.5317 135.545 -38.4741 135.739 -38.6676C135.932 -38.8611 139.899 -40.0213 144.519 -41.254ZM168.218 -64.9538L176.635 -67.1775L183.119 -60.839L189.579 -54.4763L187.21 -45.7206L184.865 -36.9408L176.085 -34.5962L167.33 -32.2275L160.967 -38.6869L154.604 -45.1948L156.852 -53.5876C158.061 -58.2315 159.245 -62.1739 159.439 -62.3674C159.632 -62.5608 163.599 -63.7211 168.218 -64.9538ZM191.918 -88.6536L200.335 -90.8773L206.819 -84.5388L213.278 -78.1761L210.91 -69.4204L208.565 -60.6406L199.785 -58.296L191.03 -55.9273L184.667 -62.3867L178.304 -68.8946L180.552 -77.2874C181.761 -81.9313 182.945 -85.8737 183.138 -86.0672C183.332 -86.2606 187.299 -87.4209 191.918 -88.6536ZM215.618 -112.353L224.035 -114.577L230.543 -108.214L237.002 -101.852L234.73 -93.3863C233.473 -88.694 232.265 -84.7274 232.071 -84.5339C231.878 -84.3405 227.887 -83.156 223.219 -81.8749L214.729 -79.6271L208.367 -86.0865L202.004 -92.5943L204.252 -100.987C205.46 -105.631 206.645 -109.573 206.838 -109.767C207.032 -109.96 210.998 -111.121 215.618 -112.353ZM-12.811 157.01L-4.2005 154.689L2.23476 161.076L8.67004 167.512L6.30129 176.267L3.93255 185.071L-4.82309 187.44L-13.5787 189.76L-19.9414 183.301L-26.3042 176.793L-24.0321 168.183C-22.7995 163.418 -21.7118 159.524 -21.615 159.475C-21.5183 159.379 -17.5758 158.291 -12.811 157.01ZM10.8888 133.31L19.4993 130.99L25.9345 137.376L32.3456 143.788L30.0011 152.567L27.6323 161.323L18.8767 163.692L10.0968 166.036L3.73414 159.577L-2.60439 153.093L-0.332362 144.483C0.900322 139.718 1.98803 135.824 2.08478 135.775C2.15734 135.703 6.12396 134.591 10.8888 133.31ZM34.5886 109.61L43.1991 107.29L49.6343 113.677L56.0454 120.088L53.7009 128.868L51.3321 137.623L42.5765 139.992L33.7966 142.337L27.4339 135.877L21.0954 129.393L23.3674 120.783C24.6001 116.018 25.6878 112.124 25.7846 112.076C25.8571 112.003 29.8237 110.891 34.5886 109.61ZM58.2883 85.9104L66.8989 83.59L73.3341 89.9769L79.7452 96.388L77.4006 105.168L75.0319 113.923L66.2763 116.292L57.4964 118.637L51.1337 112.177L44.7952 105.694L47.0672 97.0832C48.2999 92.3183 49.3876 88.4243 49.4844 88.3759C49.5569 88.3034 53.5235 87.1915 58.2883 85.9104ZM81.7705 62.3315L90.5019 59.987L96.9855 66.3255L103.445 72.6882L101.1 81.468L98.7317 90.2237L89.976 92.5924L81.1962 94.937L74.8335 88.4775L68.495 81.9939L70.767 73.3834C71.9997 68.6186 73.0148 64.7487 73.0148 64.7003C73.0148 64.6519 76.9573 63.6126 81.7705 62.3315ZM105.47 38.6317L114.202 36.2872L120.685 42.6257L127.145 48.9884L124.8 57.7682L122.431 66.5239L113.676 68.8926L104.896 71.2372L98.5333 64.7777L92.1947 58.2941L94.4668 49.6836C95.6995 44.9188 96.7146 41.0489 96.7146 41.0005C96.7146 40.9521 100.657 39.9128 105.47 38.6317ZM129.17 14.932L137.901 12.5874L144.385 18.9259L150.845 25.2886L148.5 34.0685L146.131 42.8241L137.376 45.1929L128.596 47.5374L122.233 41.078L115.895 34.5943L118.167 25.9838C119.399 21.219 120.414 17.3491 120.414 17.3007C120.414 17.2523 124.357 16.213 129.17 14.932ZM152.87 -8.76783L161.601 -11.1124L168.085 -4.77386L174.544 1.58884L172.2 10.3687L169.831 19.1243L161.075 21.4931L152.296 23.8376L145.884 17.4265L139.498 10.9913L141.818 2.33239C143.075 -2.45661 144.114 -6.35071 144.114 -6.39906C144.114 -6.44744 148.057 -7.48677 152.87 -8.76783ZM176.57 -32.4676L185.301 -34.8122L191.785 -28.4737L198.244 -22.1109L195.9 -13.3311L193.531 -4.57546L184.775 -2.20671L175.995 0.137832L169.584 -6.27325L163.197 -12.7085L165.518 -21.3674C166.775 -26.1564 167.814 -30.0505 167.814 -30.0989C167.814 -30.1472 171.756 -31.1866 176.57 -32.4676ZM200.269 -56.1674L209.001 -58.512L215.484 -52.1734L221.944 -45.8107L219.599 -37.0309L217.231 -28.2753L208.475 -25.9065L199.695 -23.5619L193.284 -29.973L186.897 -36.4083L189.218 -45.0672C190.474 -49.8562 191.514 -53.7503 191.514 -53.7986C191.514 -53.847 195.456 -54.8863 200.269 -56.1674ZM223.969 -79.8672L232.701 -82.2118L239.208 -75.849L245.668 -69.4863L243.348 -60.7307L240.979 -51.975L232.175 -49.6063L223.419 -47.2375L216.984 -53.6728L210.597 -60.1081L212.917 -68.767C214.174 -73.556 215.214 -77.45 215.214 -77.4984C215.214 -77.5468 219.156 -78.5861 223.969 -79.8672ZM19.6269 165.7L28.2374 163.379L34.6485 169.79L41.0596 176.201L38.6666 184.981L36.3221 193.761L27.5422 196.105L18.8108 198.45L12.3997 192.039L5.98864 185.628L8.30903 176.921C9.59008 172.156 10.702 168.189 10.8229 168.117C10.9196 168.068 14.8863 166.956 19.6269 165.7ZM43.3267 142L51.9372 139.679L58.3483 146.09L64.7594 152.501L62.3906 161.257L60.0218 170.013L51.2662 172.382L42.5348 174.726L36.0995 168.339L29.6884 161.928L32.0088 153.221C33.2899 148.456 34.4018 144.489 34.5227 144.417C34.6194 144.369 38.5861 143.257 43.3267 142ZM67.0265 118.3L75.637 115.98L82.0481 122.391L88.4591 128.802L86.0904 137.557L83.7216 146.313L74.966 148.682L66.2345 151.026L59.7993 144.639L53.3882 138.228L55.7086 129.521C56.9896 124.756 58.1015 120.79 58.2225 120.717C58.3192 120.669 62.2858 119.557 67.0265 118.3ZM90.7262 94.6002L99.3368 92.2798L105.748 98.6908L112.159 105.102L109.79 113.858L107.397 122.589L98.6658 124.982L89.9343 127.327L83.4991 120.94L77.088 114.529L79.4084 105.821C80.6894 101.056 81.8013 97.0898 81.9222 97.0173C82.019 96.9689 85.9856 95.857 90.7262 94.6002ZM114.426 70.9004L123.037 68.58L129.448 74.9911L135.859 81.4021L133.49 90.1578L131.097 98.8892L122.366 101.282L113.61 103.651L107.199 97.2398L100.788 90.8288L103.108 82.1215C104.389 77.3567 105.501 73.39 105.622 73.3175C105.719 73.2692 109.685 72.1573 114.426 70.9004ZM138.126 47.2006L146.736 44.8802L153.147 51.2913L159.558 57.7024L157.19 66.458L154.797 75.1894L146.065 77.5824L137.31 79.9511L130.899 73.5401L124.488 67.129L126.808 58.4217C128.089 53.6569 129.201 49.6903 129.322 49.6177C129.419 49.5694 133.385 48.4575 138.126 47.2006ZM161.826 23.5008L170.436 21.1804L176.847 27.5915L183.234 34.0268L180.89 42.7582L178.497 51.4896L169.765 53.8826L161.009 56.2513L154.598 49.8403L148.187 43.4292L150.508 34.7219C151.789 29.9571 152.901 25.9905 153.022 25.9179C153.118 25.8696 157.085 24.7577 161.826 23.5008ZM185.525 -0.198954L194.136 -2.51937L200.547 3.89171L206.934 10.327L204.589 19.0584L202.221 27.8141L193.465 30.1828L184.709 32.5516L178.298 26.1405L171.887 19.7294L174.208 11.0222C175.489 6.25733 176.6 2.2907 176.697 2.24234C176.818 2.16979 180.761 1.08209 185.525 -0.198954ZM209.225 -23.8987L217.836 -26.2191L224.247 -19.8081L230.634 -13.3728L228.289 -4.64135L225.92 4.11427L217.165 6.48304L208.409 8.85178L201.998 2.4407L195.587 -3.97038L197.907 -12.6776C199.188 -17.4425 200.3 -21.4091 200.397 -21.4574C200.518 -21.53 204.46 -22.6177 209.225 -23.8987ZM232.925 -47.5985L241.535 -49.9189L247.947 -43.5079L254.358 -37.0968L252.013 -28.3653L249.669 -19.5855L240.889 -17.2409L232.109 -14.848L225.698 -21.2591L219.287 -27.6702L221.607 -36.3774C222.888 -41.1422 224 -45.1089 224.097 -45.1572C224.218 -45.2298 228.16 -46.3175 232.925 -47.5985ZM51.9197 174.389L60.627 172.069L66.9897 178.528L73.3282 185.012L71.0078 193.719L68.6874 202.426L59.956 204.771L51.2487 207.14L44.8134 200.753L38.3782 194.318L40.7227 185.635C41.9796 180.846 43.0431 176.879 43.0915 176.831C43.1399 176.782 47.1065 175.67 51.9197 174.389ZM75.6195 150.689L84.3267 148.369L90.6894 154.829L97.028 161.312L94.8043 169.729C93.5716 174.349 92.4113 178.316 92.2178 178.509C92.0002 178.678 88.0577 179.863 83.4381 181.095L75.021 183.319L68.5374 176.981L62.1021 170.642L64.3984 161.959C65.6794 157.146 66.7429 153.179 66.7913 153.131C66.8396 153.082 70.8063 151.971 75.6195 150.689ZM99.3192 126.99L108.027 124.669L114.389 131.129L120.728 137.612L118.504 146.029C117.271 150.649 116.111 154.616 115.918 154.809C115.7 154.978 111.758 156.163 107.138 157.396L98.7208 159.619L92.2372 153.281L85.8019 146.942L88.0981 138.259C89.3792 133.446 90.4427 129.479 90.4911 129.431C90.5394 129.383 94.5061 128.271 99.3192 126.99ZM122.995 103.314L131.726 100.97L138.089 107.429L144.428 113.913L142.204 122.33C140.971 126.949 139.787 130.892 139.593 131.085C139.4 131.279 135.457 132.463 130.838 133.696L122.421 135.92L115.937 129.581L109.478 123.218L111.774 114.535C113.079 109.746 114.167 105.804 114.167 105.755C114.215 105.707 118.182 104.595 122.995 103.314ZM146.695 79.6143L155.426 77.2697L161.789 83.7292L168.127 90.2128L165.904 98.6298C164.671 103.25 163.486 107.192 163.293 107.385C163.1 107.579 159.157 108.763 154.537 109.996L146.12 112.22L139.637 105.881L133.177 99.5185L135.474 90.8354C136.779 86.0464 137.866 82.104 137.866 82.0556C137.915 82.0072 141.881 80.8954 146.695 79.6143ZM170.394 55.9145L179.126 53.57L185.489 60.0294L191.827 66.513L189.603 74.9301C188.371 79.5498 187.186 83.4922 186.993 83.6856C186.799 83.8791 182.857 85.0636 178.237 86.2963L169.82 88.52L163.337 82.1814L156.877 75.8187L159.173 67.1356C160.479 62.3467 161.566 58.4042 161.566 58.3558C161.615 58.3075 165.581 57.1956 170.394 55.9145ZM194.094 32.2147L202.85 29.8944L209.188 36.3296L215.527 42.8132L213.303 51.2303C212.07 55.85 210.886 59.7924 210.693 59.9859C210.499 60.1793 206.557 61.3638 201.937 62.5965L193.52 64.8202L187.036 58.4816L180.577 52.119L182.873 43.4358C184.178 38.6469 185.242 34.6802 185.29 34.6319C185.339 34.5835 189.305 33.52 194.094 32.2147ZM217.794 8.51494L226.55 6.19458L232.888 12.6298L239.227 19.1135L237.003 27.5305C235.77 32.1502 234.586 36.0926 234.417 36.3103C234.223 36.5037 230.256 37.664 225.637 38.8967L217.22 41.1204L210.736 34.7819L204.277 28.4192L206.573 19.7361C207.878 14.9471 208.942 10.9804 208.99 10.9321C209.038 10.8837 213.005 9.8202 217.794 8.51494ZM241.494 -15.1848L250.225 -17.5294L256.66 -11.0941L263.047 -4.65886L260.679 4.0484L258.334 12.7798L249.627 15.1002L240.92 17.4206L234.436 11.0821L227.976 4.71938L230.273 -3.96372C231.578 -8.75271 232.641 -12.7193 232.69 -12.7677C232.738 -12.8161 236.681 -13.9038 241.494 -15.1848ZM84.6962 182.982L92.9923 180.734L99.355 187.194L105.694 193.677L103.446 202.167C102.189 206.859 101.029 210.826 100.859 210.947C100.69 211.116 96.7717 212.276 92.1278 213.485L83.735 215.733L77.2272 209.37L70.7435 202.983L73.0639 194.324C74.3933 189.366 75.602 185.545 75.9164 185.424C76.1824 185.303 80.1491 184.191 84.6962 182.982ZM108.396 159.283L116.692 157.035L123.055 163.494L129.393 169.978L127.218 178.201C126.034 182.724 124.922 186.642 124.777 186.933C124.632 187.175 120.665 188.432 115.949 189.713L107.386 191.985L100.903 185.646L94.4433 179.283L96.7637 170.625C98.0931 165.666 99.3018 161.845 99.6162 161.724C99.8822 161.603 103.849 160.491 108.396 159.283ZM132.096 135.583L140.392 133.335L146.755 139.794L153.093 146.278L150.821 154.792C149.564 159.484 148.452 163.402 148.331 163.523C148.21 163.644 144.292 164.756 139.6 166.013L131.086 168.285L124.603 161.946L118.143 155.584L120.463 146.925C121.793 141.966 123.002 138.145 123.316 138.024C123.582 137.903 127.549 136.791 132.096 135.583ZM155.796 111.883L164.092 109.635L170.454 116.095L176.793 122.578L174.521 131.092C173.264 135.784 172.152 139.702 172.031 139.823C171.91 139.944 167.992 141.056 163.3 142.313L154.786 144.585L148.302 138.247L141.843 131.884L144.163 123.225C145.493 118.267 146.701 114.445 147.016 114.324C147.282 114.203 151.248 113.092 155.796 111.883ZM179.495 88.1832L187.791 85.9353L194.154 92.3947L200.493 98.8784L198.317 107.102C197.133 111.625 196.021 115.543 195.876 115.833C195.731 116.075 191.764 117.332 187.048 118.613L178.486 120.885L172.002 114.547L165.543 108.184L167.863 99.5252C169.192 94.5669 170.401 90.7454 170.716 90.6245C170.982 90.5036 174.948 89.3917 179.495 88.1832ZM203.195 64.4834L211.491 62.2355L217.854 68.695L224.192 75.1786L221.92 83.6924C220.664 88.3846 219.552 92.3029 219.431 92.4238C219.31 92.5447 215.392 93.6566 210.699 94.9135L202.186 97.1855L195.702 90.847L189.242 84.4843L191.563 75.8254C192.892 70.8671 194.101 67.0456 194.415 66.9247C194.681 66.8038 198.648 65.6919 203.195 64.4834ZM226.895 40.7836L235.191 38.5357L241.554 44.9952L247.892 51.4788L245.62 60.041C244.339 64.7574 243.082 68.724 242.84 68.8691C242.55 69.0141 238.632 70.126 234.109 71.3104L225.885 73.4857L219.402 67.1472L212.942 60.7845L215.263 52.1256C216.592 47.1673 217.801 43.3458 218.115 43.2249C218.381 43.104 222.348 41.9922 226.895 40.7836ZM250.595 17.0838L258.891 14.8359L265.278 21.3196L271.64 27.8274L269.393 36.2202C268.184 40.8641 267.024 44.7824 266.854 44.9517C266.734 45.1209 262.767 46.2812 258.075 47.5381L249.585 49.786L243.101 43.4474L236.642 37.0847L238.962 28.4258C240.292 23.4675 241.5 19.646 241.815 19.5251C242.081 19.4043 246.048 18.2924 250.595 17.0838ZM116.675 191.745L125.188 189.473L131.648 195.932L138.107 202.391L135.835 210.905C134.578 215.597 133.442 219.54 133.346 219.637C133.225 219.758 129.306 220.869 124.614 222.126L116.076 224.374L109.641 217.939L103.181 211.479L105.405 203.062C106.614 198.419 107.725 194.5 107.895 194.331C108.016 194.162 111.982 193.001 116.675 191.745ZM140.374 168.045L148.888 165.773L155.348 172.232L161.807 178.692L159.535 187.205C158.278 191.898 157.142 195.84 157.045 195.937C156.924 196.058 153.006 197.17 148.314 198.427L139.776 200.674L133.341 194.239L126.881 187.78L129.105 179.363C130.313 174.719 131.425 170.801 131.595 170.631C131.715 170.462 135.682 169.302 140.374 168.045ZM164.074 144.345L172.588 142.073L179.047 148.532L185.483 154.968L183.235 163.506C181.978 168.198 180.866 172.116 180.745 172.237C180.624 172.358 176.706 173.47 172.014 174.727L163.476 176.975L157.04 170.539L150.581 164.08L152.805 155.663C154.013 151.019 155.125 147.101 155.294 146.931C155.415 146.762 159.382 145.602 164.074 144.345ZM187.774 120.645L196.288 118.373L202.747 124.833L209.182 131.268L206.935 139.806C205.678 144.498 204.566 148.416 204.445 148.537C204.324 148.658 200.406 149.77 195.713 151.027L187.175 153.275L180.74 146.84L174.281 140.38L176.504 131.963C177.713 127.319 178.825 123.401 178.994 123.232C179.115 123.062 183.082 121.902 187.774 120.645ZM211.474 96.9454L219.987 94.6734L226.447 101.133L232.882 107.568L230.634 116.106C229.377 120.798 228.266 124.717 228.145 124.838C228.024 124.958 224.105 126.07 219.413 127.327L210.875 129.575L204.44 123.14L197.981 116.68L200.204 108.263C201.413 103.619 202.525 99.7012 202.694 99.5319C202.815 99.3626 206.781 98.2023 211.474 96.9454ZM235.173 73.2456L243.687 70.9736L250.147 77.4331L256.582 83.8683L254.334 92.4063C253.077 97.0985 251.965 101.017 251.844 101.138C251.748 101.234 247.805 102.371 243.113 103.627L234.599 105.899L228.14 99.44L221.68 92.9805L223.904 84.5635C225.113 79.9196 226.224 76.0014 226.394 75.8321C226.515 75.6628 230.481 74.5025 235.173 73.2456ZM258.873 49.5459L267.387 47.2738L273.846 53.7333L280.282 60.1685L278.034 68.7065C276.777 73.3988 275.665 77.317 275.544 77.4379C275.447 77.5347 271.505 78.6708 266.813 79.9276L258.299 82.1997L251.84 75.7402L245.38 69.2808L247.604 60.8637C248.812 56.2199 249.924 52.3016 250.093 52.1323C250.214 51.963 254.181 50.8027 258.873 49.5459Z" fill="url(#paint0_linear_560_24146)"/>
</g>
<rect y="-56" width="137" height="137" fill="url(#paint1_radial_560_24146)"/>
<defs>
<linearGradient id="paint0_linear_560_24146" x1="-130.194" y1="58.7984" x2="341.42" y2="3.43683" gradientUnits="userSpaceOnUse">
<stop stop-color="#F971BA" stop-opacity="0"/>
<stop offset="0.354167" stop-color="#F971BA"/>
<stop offset="0.588542" stop-color="#99AFFF"/>
<stop offset="0.854167" stop-color="#99AFFF" stop-opacity="0"/>
</linearGradient>
<radialGradient id="paint1_radial_560_24146" cx="0" cy="0" r="1" gradientUnits="userSpaceOnUse" gradientTransform="translate(68.5 12.5) rotate(90) scale(68.5)">
<stop stop-color="#110F1A" stop-opacity="0"/>
<stop offset="1" stop-color="#110F1A"/>
</radialGradient>
</defs>
</svg>
