<svg width="16" height="17" viewBox="0 0 16 17" fill="none" xmlns="http://www.w3.org/2000/svg">
<path d="M12.2173 9.70007V7.56673H10.084V6.51673H12.2173V4.36673H13.2673V6.51673H15.4173V7.56673H13.2673V9.70007H12.2173ZM6.01732 8.4334C5.25065 8.4334 4.62565 8.19173 4.14232 7.7084C3.65898 7.22507 3.41732 6.60007 3.41732 5.8334C3.41732 5.06673 3.65898 4.44173 4.14232 3.9584C4.62565 3.47507 5.25065 3.2334 6.01732 3.2334C6.78398 3.2334 7.40898 3.47507 7.89232 3.9584C8.37565 4.44173 8.61732 5.06673 8.61732 5.8334C8.61732 6.60007 8.37565 7.22507 7.89232 7.7084C7.40898 8.19173 6.78398 8.4334 6.01732 8.4334ZM0.583984 13.9834V12.3167C0.583984 11.9056 0.68954 11.5334 0.900651 11.2001C1.11176 10.8667 1.40065 10.6167 1.76732 10.4501C2.61176 10.0834 3.36176 9.82507 4.01732 9.67507C4.67287 9.52507 5.33954 9.45007 6.01732 9.45007C6.6951 9.45007 7.36454 9.52507 8.02565 9.67507C8.68676 9.82507 9.42843 10.0834 10.2507 10.4501C10.6173 10.6278 10.909 10.8806 11.1257 11.2084C11.3423 11.5362 11.4507 11.9056 11.4507 12.3167V13.9834H0.583984Z" fill="#EDECF4"/>
</svg>
