<svg width="12" height="12" viewBox="0 0 12 12" fill="none" xmlns="http://www.w3.org/2000/svg">
<path d="M6.00033 5.9834C5.26699 5.9834 4.66699 5.75007 4.20033 5.2834C3.73366 4.81673 3.50033 4.21673 3.50033 3.4834C3.50033 2.75007 3.73366 2.15007 4.20033 1.6834C4.66699 1.21673 5.26699 0.983398 6.00033 0.983398C6.73366 0.983398 7.33366 1.21673 7.80032 1.6834C8.26699 2.15007 8.50033 2.75007 8.50033 3.4834C8.50033 4.21673 8.26699 4.81673 7.80032 5.2834C7.33366 5.75007 6.73366 5.9834 6.00033 5.9834V5.9834ZM0.666992 11.3334V9.76673C0.666992 9.34451 0.772548 8.9834 0.983659 8.6834C1.19477 8.3834 1.46699 8.15562 1.80033 8.00006C2.54477 7.66673 3.25866 7.41673 3.94199 7.25006C4.62533 7.0834 5.31144 7.00006 6.00033 7.00006C6.68921 7.00006 7.37255 7.08618 8.05032 7.2584C8.7281 7.43062 9.43921 7.67784 10.1837 8.00006C10.5281 8.15562 10.8059 8.3834 11.017 8.6834C11.2281 8.9834 11.3337 9.34451 11.3337 9.76673V11.3334H0.666992Z" fill="#EDECF4"/>
</svg>
